<svg height="487pt" viewBox="0 -37 487.09511 487" width="487pt" xmlns="http://www.w3.org/2000/svg"><path d="m211.417969 172.363281-13.144531-36.886719c-.566407-1.59375-2.074219-2.65625-3.769532-2.65625h-6.277344c-2.796874 0-4.730468 2.792969-3.742187 5.410157l22.457031 59.570312c.585938 1.558594 2.074219 2.589844 3.738282 2.589844h8.984374c1.664063 0 3.15625-1.035156 3.742188-2.59375l22.375-59.570313c.980469-2.617187-.953125-5.40625-3.746094-5.40625h-6.105468c-1.6875 0-3.195313 1.0625-3.765626 2.652344l-13.210937 36.894532c-1.269531 3.539062-6.273437 3.535156-7.535156-.003907zm0 0" fill="#f9a7a7"/><path d="m281.605469 160.214844c-7.894531-2.179688-12.730469-3.761719-12.730469-8.621094 0-6.582031 6.011719-7.292969 8.597656-7.292969l.488282.007813c5.945312.167968 8.894531 3.617187 9.179687 6.964844l.128906 1.535156h15.015625l-.15625-1.820313c-.984375-11.71875-10.015625-19-23.570312-19-14.210938 0-23.757813 8.027344-23.757813 19.972657 0 14.359374 11.621094 17.457031 20.964844 19.945312 8.136719 2.171875 13.125 3.773438 13.125 9.15625 0 4.777344-3.78125 7.746094-9.867187 7.746094-5.773438 0-9.335938-2.910156-9.785157-7.984375l-.132812-1.53125h-14.488281v1.679687c0 11.8125 10.035156 20.066406 24.40625 20.066406 15.660156 0 23.855468-10.328124 23.855468-20.527343-.003906-14.417969-11.796875-17.675781-21.273437-20.296875zm0 0" fill="#f9a7a7"/><path d="m89.960938 199.214844c-.820313-.125-1.617188-.277344-2.382813-.457032-5.707031-1.339843-10.75-4.6875-14.386719-9.3125l-3.652344-4.644531c-.542968-.6875-.902343-1.492187-1.082031-2.34375-11.164062.992188-20.984375 6.664063-27.523437 15.054688h-.003906c-.023438.03125-.046876.0625-.070313.097656-.214844.273437-.417969.554687-.625.835937-.128906.175782-.257813.347657-.378906.523438-.199219.277344-.386719.558594-.574219.839844-.128906.1875-.253906.378906-.378906.570312-.179688.277344-.355469.558594-.527344.839844-.125.203125-.246094.40625-.367188.609375-.164062.28125-.328124.5625-.484374.851563-.121094.214843-.234376.429687-.347657.648437-.148437.28125-.300781.566406-.445312.851563-.113281.230468-.222657.464843-.332031.699218-.136719.277344-.269532.558594-.398438.84375-.121094.277344-.238281.558594-.355469.839844-.1875.449219-.367187.898438-.535156 1.355469-.121094.3125-.238281.621093-.347656.9375-.085938.25-.164063.5-.246094.753906-.097656.300781-.199219.605469-.289063.914063-.078124.253906-.144531.511718-.21875.765624-.085937.3125-.167968.621094-.246093.933594-.0625.257813-.125.515625-.183594.777344-.074219.320312-.144531.640625-.207031.964844-.054688.253906-.105469.511718-.148438.769531-.0625.332031-.117187.667969-.167968 1.003906-.042969.25-.078126.503907-.113282.753907-.046875.359374-.089844.714843-.128906 1.074218-.023438.238282-.054688.472656-.074219.710938-.035156.402344-.0625.800781-.085937 1.203125-.011719.203125-.03125.402343-.039063.609375-.027343.605468-.042969 1.214844-.042969 1.828125v7.929687h124.796876v-7.929687c0-.625-.019532-1.242188-.046876-1.863281-.011718-.207032-.027343-.417969-.039062-.625-.027344-.40625-.054688-.808594-.089844-1.210938-.027344-.25-.054687-.5-.082031-.75-.039063-.351562-.082031-.707031-.128906-1.058594-.039063-.269531-.078125-.535156-.121094-.800781-.050781-.328125-.109375-.648437-.167969-.972656-.050781-.28125-.105468-.5625-.160156-.839844-.0625-.296875-.132812-.589844-.199219-.882813-.070312-.296874-.136719-.597656-.210937-.890624-.0625-.238282-.132813-.476563-.199219-.714844-.355469-1.289063-.773437-2.558594-1.253906-3.792969-.039063-.105469-.078125-.210937-.117188-.3125-.164062-.40625-.335937-.8125-.511719-1.214844-.050781-.113281-.097656-.222656-.148437-.339843-.183594-.40625-.375-.808594-.574219-1.210938-.042968-.089844-.085937-.179688-.132812-.269531-.210938-.425781-.429688-.847657-.65625-1.261719-.019532-.035156-.042969-.074219-.0625-.109375-6.460938-11.769531-18.691406-19.882813-32.859375-20.464844l-5.335938 6.882813c-5.765625 7.441406-15.035156 11.390625-24.308593 10zm0 0" fill="#f9a7a7"/><path d="m119.605469 182.339844-5.335938 6.878906c-5.765625 7.4375-15.035156 11.386719-24.308593 9.996094-.820313-.125-1.617188-.277344-2.382813-.457032-5.707031-1.339843-10.75-4.6875-14.386719-9.3125l-3.652344-4.644531c-.542968-.6875-.902343-1.492187-1.082031-2.34375-2 .179688-3.953125.511719-5.855469.976563l2.722657 5.230468 3.386719 4.304688c4.488281 5.707031 10.730468 9.734375 17.570312 11.335938.9375.21875 1.890625.402343 2.835938.542968 1.5.222656 3.027343.339844 4.542968.339844 9.667969 0 19.058594-4.664062 25.117188-12.480469l3.4375-4.4375 3.453125-5.195312zm0 0" fill="#e0ebfc"/><path d="m68.457031 182.460938c.082031.394531.207031.773437.367188 1.140624.023437.046876.042969.097657.066406.144532.070313.148437.148437.296875.230469.4375.082031.136718.171875.273437.265625.40625.050781.070312.097656.144531.152343.214844l3.652344 4.644531c3.636719 4.621093 8.679688 7.96875 14.386719 9.308593.765625.179688 1.5625.335938 2.382813.457032 9.269531 1.390625 18.542968-2.558594 24.308593-9.992188l5.324219-6.867187c.074219-.371094.121094-.742188.121094-1.125v-16.027344c-7.691406 4.027344-16.425782 6.3125-25.699219 6.3125s-18.015625-2.289063-25.710937-6.320313v16.070313c0 .402344.058593.804687.144531 1.195313zm0 0" fill="#f9cfcf"/><path d="m150.148438 94.050781c-.117188 0-.234376.015625-.351563.019531v-5.300781c0-30.992187-24.972656-56.117187-55.78125-56.117187-30.804687 0-55.777344 25.125-55.777344 56.117187v5.300781c-.117187-.003906-.234375-.019531-.351562-.019531-9.398438 0-17.019531 7.664063-17.019531 17.121094s7.621093 17.121094 17.019531 17.121094c.617187 0 1.226562-.039063 1.824219-.101563 5.757812 24.824219 27.875 43.324219 54.304687 43.324219 26.433594 0 48.550781-18.5 54.308594-43.324219.597656.0625 1.207031.101563 1.824219.101563 9.398437 0 17.019531-7.664063 17.019531-17.121094s-7.617188-17.121094-17.019531-17.121094zm0 0" fill="#f9cfcf"/><g fill="#3762cc"><path d="m64.742188 113.375c-3.132813 0-5.671876-2.539062-5.671876-5.671875v-9.578125c0-3.132812 2.539063-5.671875 5.671876-5.671875 3.132812 0 5.671874 2.539063 5.671874 5.671875v9.578125c0 3.136719-2.539062 5.671875-5.671874 5.671875zm0 0"/><path d="m123.632812 113.375c-3.132812 0-5.671874-2.539062-5.671874-5.671875v-9.578125c0-3.132812 2.539062-5.671875 5.671874-5.671875 3.132813 0 5.671876 2.539063 5.671876 5.671875v9.578125c0 3.136719-2.539063 5.671875-5.671876 5.671875zm0 0"/><path d="m94.183594 145.28125c-8.597656 0-15.589844-6.398438-15.589844-14.261719 0-1.65625 1.34375-3 3-3s3 1.34375 3 3c0 4.554688 4.300781 8.261719 9.589844 8.261719 5.292968 0 9.597656-3.707031 9.597656-8.261719 0-1.65625 1.34375-3 3-3 1.652344 0 3 1.34375 3 3 0 7.863281-6.996094 14.261719-15.597656 14.261719zm0 0"/><path d="m94.015625 175.515625c-26.84375 0-49.988281-17.628906-57.378906-43.261719-11.011719-.652344-19.769531-9.859375-19.769531-21.085937 0-10.390625 7.515624-19.058594 17.371093-20.796875v-1.605469c0-33.148437 26.816407-60.117187 59.78125-60.117187 32.964844 0 59.78125 26.96875 59.78125 60.117187v1.605469c9.855469 1.738281 17.371094 10.402344 17.371094 20.796875 0 11.226562-8.757813 20.433593-19.769531 21.085937-7.394532 25.632813-30.539063 43.261719-57.386719 43.261719zm-54.300781-51.324219c1.839844 0 3.46875 1.265625 3.894531 3.09375 5.488281 23.6875 26.21875 40.230469 50.40625 40.230469 24.191406 0 44.917969-16.542969 50.410156-40.230469.460938-1.96875 2.304688-3.292968 4.324219-3.070312.460938.046875.925781.078125 1.398438.078125 7.179687 0 13.019531-5.886719 13.019531-13.125 0-7.207031-5.804688-13.082031-12.953125-13.117188-.160156.007813-.355469.015625-.417969.015625-1.050781 0-2.058594-.410156-2.804687-1.148437-.765626-.75-1.195313-1.777344-1.195313-2.851563v-5.300781c0-28.734375-23.230469-52.117187-51.78125-52.117187s-51.78125 23.378906-51.78125 52.117187v5.300781c0 1.074219-.429687 2.101563-1.195313 2.851563-.765624.753906-1.761718 1.152343-2.875 1.148437-.070312 0-.304687-.011718-.378906-.019531-7.082031.003906-12.921875 5.886719-12.921875 13.121094 0 7.238281 5.839844 13.125 13.019531 13.125.472657 0 .9375-.03125 1.398438-.078125.148438-.015625.292969-.023438.433594-.023438zm0 0"/><path d="m157.359375 233.855469h-124.792969c-2.207031 0-4-1.792969-4-4v-7.929688c0-.675781.015625-1.347656.046875-2.011719l.039063-.65625c.03125-.457031.058594-.890624.097656-1.324218l.082031-.789063c.042969-.402343.089844-.796875.144531-1.191406l.113282-.789063c.066406-.417968.128906-.792968.199218-1.164062.046876-.269531.105469-.554688.164063-.839844.0625-.335937.140625-.691406.222656-1.042968l.207031-.867188c.082032-.339844.179688-.6875.273438-1.03125s.164062-.59375.238281-.84375c.09375-.316406.195313-.632812.300781-.957031l.292969-.890625c.097657-.289063.210938-.585938.324219-.886719.238281-.628906.4375-1.125.640625-1.621094.179687-.4375.289063-.691406.402344-.945312.132812-.300781.285156-.621094.4375-.9375.136719-.292969.25-.527344.363281-.757813l.386719-.746094c.003906-.003906.09375-.179687.097656-.183593l.375-.703125c.1875-.332032.367187-.640625.546875-.953125l.386719-.652344c.203125-.328125.390625-.628906.589843-.933594l.417969-.632812c.199219-.300781.410157-.609375.625-.914063l.320313-.445312c.003906 0 .179687-.246094.183594-.246094.203124-.277344.40625-.554688.621093-.828125.023438-.03125.046875-.0625.074219-.089844v-.003906c6.566406-8.429687 16.113281-14.175781 26.523438-16.054687v-13.804688c0-1.398438.734374-2.699219 1.929687-3.421875 1.199219-.726563 2.6875-.769531 3.925781-.121094 7.425782 3.886719 15.453125 5.863281 23.859375 5.863281 8.398438 0 16.421875-1.96875 23.839844-5.855468 1.238281-.644532 2.726563-.601563 3.925781.125 1.199219.722656 1.929688 2.019531 1.929688 3.421875l.003906 13.484375c13.484375 1.828125 25.605469 10.074218 32.253906 22.183594.316406.578124.554688 1.039062.789063 1.503906.003906.011718.144531.289062.148437.296875.21875.445312.425782.886719.628906 1.339843l.171876.394532c.1875.425781.375.871094.554687 1.320312.011719.027344.085937.222656.097656.25.554688 1.4375 1.023438 2.84375 1.417969 4.269532l.214844.800781c.066406.253906.132812.535156.195312.8125.109375.464843.183594.785156.25 1.105469l.148438.777343c.097656.53125.160156.878907.214844 1.226563.050781.300781.09375.597656.132812.898437.050781.382813.101562.773438.144531 1.167969l.085938.8125c.042969.441406.070312.882812.097656 1.332031l.042969.6875c.03125.679688.050781 1.363281.050781 2.050781v7.929688c0 2.21875-1.789063 4.011719-4 4.011719zm-120.792969-8h116.792969v-3.929688c0-.5625-.015625-1.121093-.042969-1.675781v-.003906l-.035156-.589844c-.023438-.335938-.046875-.703125-.078125-1.0625l-.054687-.496094c-.054688-.5-.09375-.816406-.136719-1.128906l-.945313-4.578125c-.324218-1.179687-.703125-2.324219-1.128906-3.417969-.007812-.019531-.066406-.179687-.074219-.199218-.179687-.457032-.335937-.816407-.492187-1.175782l-.132813-.304687c-.164062-.363281-.335937-.730469-.511719-1.089844l3.457032-2.03125-3.574219 1.792969c-.195313-.382813-.390625-.765625-.597656-1.140625-5.976563-10.882813-17.203125-17.914063-29.378907-18.480469-.660156-.054688-1.21875-.125-1.789062-.402344-1.636719-.800781-2.535156-2.597656-2.171875-4.382812.023437-.105469.042969-.214844.042969-.328125v-9.816407c-13.777344 5.390626-29.628906 5.386719-43.410156-.003906v9.855469c0 .027344.003906.125.054687.355469.234375 1.097656 0 2.242187-.652344 3.15625-.652343.917968-1.65625 1.515625-2.773437 1.652344l-.730469.089843c-9.476563 1.023438-18.242187 5.925781-24.113281 13.457031-.03125.042969-.0625.082032-.097656.121094-.199219.265625-.332032.445313-.460938.625l-.109375-.070312c-.078125.0625-.160156.125-.242187.179687l.175781.128907-.242188.335937c-.164062.234375-.339843.484375-.507812.738281l-1.144531 1.828125c-.15625.257813-.300782.511719-.441407.765625l-.945312 1.835938c-.191407.402344-.3125.644531-.421875.894531l-.316406.75c-.171876.40625-.332032.816406-.488282 1.226563l-.53125 1.519531c-.101562.3125-.183594.5625-.261718.820312l-.15625.5625c-.113282.40625-.191407.683594-.257813.960938l-.128906.535156c-.101563.445313-.164063.734375-.222657 1.023437l-.132812.699219c-.058594.316407-.109375.613281-.15625.914063l-.097656.65625c-.042969.339844-.082032.660156-.117188.980468l-.066406.636719c-.035156.359375-.054688.730469-.078125 1.097657l-.035156.546874c-.027344.535157-.042969 1.085938-.042969 1.636719v3.929688zm3.566406-27.265625.796876.589844v-.089844zm0 0"/></g><path d="m139.621094 17.417969h-9.511719c-7.527344 0-14.046875 4.480469-17.300781 11.039062-.507813 1.027344-1.882813 1.050781-2.425782.042969-3.015624-5.558594-8.671874-9.402344-15.238281-9.742188-40.105469-1.148437-64.015625-10.886718-71.621093-14.527343-1.238282-.59375-2.65625.34375-2.65625 1.746093v39.183594c0 14.417969 11.390624 26.101563 25.445312 26.101563h36.910156c10.84375 0 20.308594-6.011719 25.429688-14.957031.632812-1.101563 2.207031-.808594 2.519531.433593 1.941406 7.644531 8.578125 13.28125 16.46875 13.28125h28.527344c4.039062 0 7.316406-3.441406 7.316406-7.683593v-19.867188c0-13.832031-10.683594-25.050781-23.863281-25.050781zm0 0" fill="#4671c6"/><path d="m83.558594 75.261719h-36.910156c-16.234376 0-29.445313-13.503907-29.445313-30.101563v-39.183594c0-2.058593 1.035156-3.9375 2.765625-5.027343 1.703125-1.070313 3.804688-1.199219 5.621094-.328125 8.109375 3.878906 31.15625 13.023437 70.007812 14.136718 6.445313.332032 12.238282 3.328126 16.21875 8.214844 4.398438-5.980468 11.226563-9.558594 18.628906-9.558594h9.511719c15.363281 0 27.863281 13.035157 27.863281 29.054688v19.867188c0 6.441406-5.074218 11.683593-11.316406 11.683593h-28.523437c-7.816407 0-14.84375-4.492187-18.46875-11.390625-6.304688 7.898438-15.851563 12.632813-25.953125 12.632813zm-58.355469-66.03125v35.929687c0 12.1875 9.621094 22.101563 21.445313 22.101563h36.910156c8.972656 0 17.386718-4.957031 21.957031-12.945313 1.089844-1.902344 3.195313-2.960937 5.34375-2.644531 2.199219.300781 3.976563 1.90625 4.53125 4.089844 1.53125 6.039062 6.707031 10.257812 12.589844 10.257812h28.523437c1.828125 0 3.316406-1.652343 3.316406-3.679687v-19.871094c0-11.609375-8.910156-21.050781-19.863281-21.050781h-9.511719c-5.765624 0-11.019531 3.375-13.714843 8.816406-.902344 1.816406-2.707031 2.96875-4.707031 3.003906-1.957032-.023437-3.851563-1.042969-4.816407-2.828125-2.460937-4.539062-6.921875-7.398437-11.929687-7.660156-36.230469-1.035156-59.519532-8.949219-70.074219-13.519531zm0 0" fill="#3762cc"/><path d="m180.664062 322.503906c0-20.0625-16.039062-36.367187-35.996093-36.816406v-.023438h-101.300781v.023438c-19.957032.449219-35.996094 16.753906-35.996094 36.816406l-3.351563 69.71875c-.433593 8.984375 6.734375 16.503906 15.730469 16.503906h.003906c5.085938 0 9.863282-2.457031 12.816406-6.597656l30.558594-42.789062h61.777344l30.558594 42.789062c2.953125 4.140625 7.730468 6.597656 12.816406 6.597656h.003906c8.996094 0 16.164063-7.519531 15.730469-16.503906zm0 0" fill="#f9a7a7"/><path d="m81.046875 322.503906c0 20.34375-16.492187 36.839844-36.835937 36.839844-20.347657 0-36.839844-16.496094-36.839844-36.839844s16.492187-36.839844 36.839844-36.839844c20.34375 0 36.835937 16.496094 36.835937 36.839844zm0 0" fill="#e0ebfc"/><path d="m180.664062 322.503906c0 20.34375-16.492187 36.839844-36.835937 36.839844s-36.839844-16.496094-36.839844-36.839844 16.496094-36.839844 36.839844-36.839844 36.835937 16.496094 36.835937 36.839844zm0 0" fill="#e0ebfc"/><path d="m101.269531 331.195312h-14.503906c-1.082031 0-1.957031-.875-1.957031-1.957031v-5.292969c0-1.082031.875-1.957031 1.957031-1.957031h14.503906c1.082031 0 1.957031.875 1.957031 1.957031v5.292969c0 1.082031-.878906 1.957031-1.957031 1.957031zm0 0" fill="#f9a7a7"/><path d="m69.996094 322.503906c0 14.242188-11.546875 25.785156-25.785156 25.785156-14.242188 0-25.789063-11.542968-25.789063-25.785156 0-14.242187 11.546875-25.785156 25.789063-25.785156 14.238281 0 25.785156 11.542969 25.785156 25.785156zm0 0" fill="#a4c9ff"/><path d="m58.945312 315.539062h-8.289062v-8.289062c0-2.03125-1.652344-3.683594-3.683594-3.683594h-5.527344c-2.035156 0-3.683593 1.652344-3.683593 3.683594v8.289062h-8.289063c-2.03125 0-3.683594 1.652344-3.683594 3.683594v5.527344c0 2.035156 1.652344 3.683594 3.683594 3.683594h8.289063v8.289062c0 2.035156 1.648437 3.683594 3.683593 3.683594h5.527344c2.03125 0 3.683594-1.648438 3.683594-3.683594v-8.289062h8.289062c2.03125 0 3.683594-1.648438 3.683594-3.683594v-5.527344c0-2.03125-1.652344-3.683594-3.683594-3.683594zm0 0" fill="#f9cfcf"/><path d="m171.066406 322.449219c0 14.238281-11.542968 25.785156-25.785156 25.785156s-25.785156-11.546875-25.785156-25.785156c0-14.242188 11.542968-25.789063 25.785156-25.789063s25.785156 11.546875 25.785156 25.789063zm0 0" fill="#a4c9ff"/><path d="m152.648438 308.632812c0 4.070313-3.296876 7.367188-7.367188 7.367188s-7.367188-3.296875-7.367188-7.367188c0-4.066406 3.296876-7.367187 7.367188-7.367187s7.367188 3.300781 7.367188 7.367187zm0 0" fill="#4671c6"/><path d="m152.648438 336.261719c0 4.070312-3.296876 7.367187-7.367188 7.367187s-7.367188-3.296875-7.367188-7.367187c0-4.070313 3.296876-7.367188 7.367188-7.367188s7.367188 3.296875 7.367188 7.367188zm0 0" fill="#4671c6"/><path d="m166.464844 322.449219c0 4.066406-3.300782 7.367187-7.371094 7.367187-4.066406 0-7.367188-3.300781-7.367188-7.367187 0-4.070313 3.300782-7.371094 7.367188-7.371094 4.070312 0 7.371094 3.300781 7.371094 7.371094zm0 0" fill="#4671c6"/><path d="m138.835938 322.449219c0 4.066406-3.300782 7.367187-7.367188 7.367187-4.070312 0-7.371094-3.300781-7.371094-7.367187 0-4.070313 3.300782-7.371094 7.371094-7.371094 4.066406 0 7.367188 3.300781 7.367188 7.371094zm0 0" fill="#4671c6"/><path d="m87.570312 261.855469h12.894532v23.753906h-12.894532zm0 0" fill="#e0ebfc"/><path d="m168.285156 412.726562c-6.375 0-12.378906-3.09375-16.078125-8.273437l-29.359375-41.113281h-57.664062l-29.355469 41.113281c-3.703125 5.179687-9.707031 8.273437-16.074219 8.273437-5.457031 0-10.535156-2.175781-14.296875-6.125-3.761719-3.949218-5.695312-9.125-5.4335935-14.570312l3.3515625-69.71875c-.003906-21.675781 17.660156-39.886719 39.464844-40.613281.171875-.023438.347656-.035157.527344-.035157h101.300781c.179687 0 .355469.011719.53125.035157 21.769531.726562 39.414062 18.882812 39.464843 40.707031l3.347657 69.625c.261719 5.449219-1.667969 10.625-5.433594 14.574219-3.761719 3.945312-8.835937 6.121093-14.292969 6.121093zm-105.15625-57.382812h61.777344c1.292969 0 2.503906.621094 3.257812 1.675781l30.554688 42.789063c2.199219 3.078125 5.773438 4.917968 9.558594 4.917968 3.253906 0 6.273437-1.289062 8.511718-3.640624 2.242188-2.351563 3.386719-5.429688 3.230469-8.671876l-3.351562-69.714843c-.003907-.0625-.003907-.128907-.003907-.191407 0-17.699218-14.394531-32.421874-32.085937-32.820312-.109375 0-.21875-.007812-.328125-.019531h-100.46875c-.109375.011719-.214844.019531-.324219.019531-17.695312.398438-32.085937 15.121094-32.085937 32.820312l-3.355469 69.90625c-.15625 3.242188.988281 6.320313 3.230469 8.671876 2.238281 2.351562 5.257812 3.640624 8.503906 3.640624 3.792969 0 7.367188-1.839843 9.566406-4.921874l30.554688-42.785157c.753906-1.050781 1.964844-1.675781 3.257812-1.675781zm121.535156-32.839844h.019532zm0 0" fill="#3762cc"/><path d="m44.207031 363.34375c-22.515625 0-40.835937-18.320312-40.835937-40.839844 0-22.519531 18.320312-40.839844 40.835937-40.839844 22.519531 0 40.839844 18.320313 40.839844 40.839844 0 22.519532-18.320313 40.839844-40.839844 40.839844zm0-73.679688c-18.105469 0-32.835937 14.730469-32.835937 32.839844s14.730468 32.839844 32.835937 32.839844c18.109375 0 32.839844-14.730469 32.839844-32.839844s-14.730469-32.839844-32.839844-32.839844zm0 0" fill="#3762cc"/><path d="m143.828125 363.34375c-22.519531 0-40.839844-18.320312-40.839844-40.839844 0-22.519531 18.320313-40.839844 40.839844-40.839844 22.515625 0 40.835937 18.320313 40.835937 40.839844 0 22.519532-18.320312 40.839844-40.835937 40.839844zm0-73.679688c-18.109375 0-32.839844 14.730469-32.839844 32.839844s14.730469 32.839844 32.839844 32.839844c18.105469 0 32.835937-14.730469 32.835937-32.839844s-14.730468-32.839844-32.835937-32.839844zm0 0" fill="#3762cc"/><path d="m100.464844 289.609375h-12.894532c-2.207031 0-4-1.792969-4-4v-23.753906c0-2.210938 1.792969-4 4-4h12.894532c2.207031 0 4 1.789062 4 4v23.753906c0 2.207031-1.792969 4-4 4zm-8.894532-8h4.894532v-15.753906h-4.894532zm0 0" fill="#3762cc"/><path d="m479.722656 322.757812c0-20.0625-16.039062-36.371093-35.996094-36.816406v-.023437h-101.304687v.023437c-19.953125.449219-35.996094 16.753906-35.996094 36.816406l-3.347656 69.714844c-.433594 8.984375 6.734375 16.503906 15.730469 16.503906h.003906c5.085938 0 9.859375-2.453124 12.816406-6.59375l30.554688-42.789062h61.78125l30.558594 42.789062c2.953124 4.140626 7.726562 6.59375 12.8125 6.59375h.007812c8.992188 0 16.160156-7.519531 15.730469-16.503906zm0 0" fill="#4671c6"/><path d="m380.105469 322.757812c0 20.34375-16.492188 36.835938-36.839844 36.835938-20.34375 0-36.835937-16.492188-36.835937-36.835938 0-20.347656 16.492187-36.839843 36.835937-36.839843 20.347656 0 36.839844 16.492187 36.839844 36.839843zm0 0" fill="#e0ebfc"/><path d="m479.722656 322.757812c0 20.34375-16.492187 36.835938-36.835937 36.835938-20.347657 0-36.839844-16.492188-36.839844-36.835938 0-20.347656 16.492187-36.839843 36.839844-36.839843 20.34375 0 36.835937 16.492187 36.835937 36.839843zm0 0" fill="#e0ebfc"/><path d="m400.328125 331.445312h-14.503906c-1.082031 0-1.957031-.875-1.957031-1.957031v-5.292969c0-1.082031.875-1.957031 1.957031-1.957031h14.503906c1.082031 0 1.957031.875 1.957031 1.957031v5.292969c.003906 1.082031-.875 1.957031-1.957031 1.957031zm0 0" fill="#f9a7a7"/><path d="m369.054688 322.757812c0 14.238282-11.546876 25.785157-25.789063 25.785157-14.238281 0-25.785156-11.546875-25.785156-25.785157 0-14.242187 11.546875-25.789062 25.785156-25.789062 14.242187 0 25.789063 11.546875 25.789063 25.789062zm0 0" fill="#a4c9ff"/><path d="m358.003906 315.789062h-8.289062v-8.289062c0-2.03125-1.648438-3.683594-3.683594-3.683594h-5.527344c-2.03125 0-3.683594 1.652344-3.683594 3.683594v8.289062h-8.285156c-2.035156 0-3.6875 1.652344-3.6875 3.683594v5.527344c0 2.035156 1.652344 3.683594 3.6875 3.683594h8.285156v8.289062c0 2.035156 1.652344 3.683594 3.683594 3.683594h5.527344c2.035156 0 3.683594-1.648438 3.683594-3.683594v-8.289062h8.289062c2.035156 0 3.683594-1.648438 3.683594-3.683594v-5.527344c0-2.03125-1.648438-3.683594-3.683594-3.683594zm0 0" fill="#ffea92"/><path d="m470.128906 322.699219c0 14.238281-11.546875 25.785156-25.789062 25.785156-14.238282 0-25.785156-11.546875-25.785156-25.785156 0-14.242188 11.546874-25.789063 25.785156-25.789063 14.242187 0 25.789062 11.546875 25.789062 25.789063zm0 0" fill="#a4c9ff"/><path d="m451.710938 308.882812c0 4.070313-3.300782 7.367188-7.371094 7.367188-4.066406 0-7.367188-3.296875-7.367188-7.367188 0-4.066406 3.300782-7.367187 7.367188-7.367187 4.070312 0 7.371094 3.300781 7.371094 7.367187zm0 0" fill="#f9a7a7"/><path d="m451.710938 336.511719c0 4.070312-3.300782 7.367187-7.371094 7.367187-4.066406 0-7.367188-3.296875-7.367188-7.367187 0-4.070313 3.300782-7.367188 7.367188-7.367188 4.070312 0 7.371094 3.296875 7.371094 7.367188zm0 0" fill="#f9a7a7"/><path d="m465.523438 322.699219c0 4.066406-3.296876 7.367187-7.367188 7.367187s-7.367188-3.300781-7.367188-7.367187c0-4.070313 3.296876-7.371094 7.367188-7.371094s7.367188 3.300781 7.367188 7.371094zm0 0" fill="#f9a7a7"/><path d="m437.894531 322.699219c0 4.066406-3.296875 7.367187-7.367187 7.367187-4.070313 0-7.367188-3.300781-7.367188-7.367187 0-4.070313 3.296875-7.371094 7.367188-7.371094 4.070312 0 7.367187 3.300781 7.367187 7.371094zm0 0" fill="#f9a7a7"/><path d="m386.632812 262.105469h12.894532v23.753906h-12.894532zm0 0" fill="#e0ebfc"/><path d="m467.34375 412.976562c-6.371094 0-12.375-3.089843-16.078125-8.273437l-29.359375-41.113281h-57.660156l-29.359375 41.113281c-3.695313 5.179687-9.707031 8.273437-16.070313 8.273437-5.460937 0-10.539062-2.175781-14.300781-6.121093-3.765625-3.953125-5.695313-9.128907-5.433594-14.574219l3.351563-69.71875c-.003906-21.675781 17.664062-39.882812 39.46875-40.609375.171875-.023437.347656-.039063.523437-.039063h101.304688c.179687 0 .355469.015626.527343.039063 21.773438.722656 39.414063 18.878906 39.464844 40.703125l3.347656 69.628906c.261719 5.445313-1.667968 10.621094-5.429687 14.570313-3.765625 3.949219-8.839844 6.121093-14.296875 6.121093zm-105.15625-57.382812h61.78125c1.289062 0 2.503906.625 3.253906 1.675781l30.554688 42.789063c2.203125 3.082031 5.777344 4.921875 9.558594 4.921875 3.25 0 6.273437-1.292969 8.511718-3.640625 2.238282-2.351563 3.386719-5.429688 3.230469-8.671875l-3.351563-69.71875c-.003906-.0625-.003906-.125-.003906-.191407 0-17.699218-14.394531-32.417968-32.085937-32.816406-.109375-.003906-.21875-.007812-.324219-.023437h-100.472656c-.109375.015625-.214844.019531-.324219.023437-17.691406.398438-32.085937 15.121094-32.085937 32.816406l-3.355469 69.910157c-.15625 3.242187.988281 6.320312 3.230469 8.671875 2.238281 2.347656 5.257812 3.640625 8.503906 3.640625 3.789062 0 7.367187-1.839844 9.566406-4.921875l30.554688-42.789063c.753906-1.054687 1.96875-1.675781 3.257812-1.675781zm121.535156-32.835938h.019532zm0 0" fill="#3762cc"/><path d="m343.265625 363.59375c-22.515625 0-40.835937-18.320312-40.835937-40.835938 0-22.519531 18.320312-40.839843 40.835937-40.839843 22.519531 0 40.839844 18.320312 40.839844 40.839843 0 22.515626-18.320313 40.835938-40.839844 40.835938zm0-73.675781c-18.105469 0-32.835937 14.730469-32.835937 32.839843 0 18.105469 14.730468 32.835938 32.835937 32.835938 18.109375 0 32.839844-14.730469 32.839844-32.835938 0-18.109374-14.730469-32.839843-32.839844-32.839843zm0 0" fill="#3762cc"/><path d="m442.886719 363.59375c-22.515625 0-40.835938-18.320312-40.835938-40.835938 0-22.519531 18.320313-40.839843 40.835938-40.839843 22.519531 0 40.835937 18.320312 40.835937 40.839843 0 22.515626-18.316406 40.835938-40.835937 40.835938zm0-73.675781c-18.105469 0-32.835938 14.730469-32.835938 32.839843 0 18.105469 14.730469 32.835938 32.835938 32.835938s32.835937-14.730469 32.835937-32.835938c0-18.109374-14.730468-32.839843-32.835937-32.839843zm0 0" fill="#3762cc"/><path d="m399.523438 289.859375h-12.890626c-2.210937 0-4-1.792969-4-4v-23.753906c0-2.210938 1.789063-4 4-4h12.890626c2.207031 0 4 1.789062 4 4v23.753906c0 2.207031-1.789063 4-4 4zm-8.890626-8h4.890626v-15.753906h-4.890626zm0 0" fill="#3762cc"/><path d="m162.964844 261.976562h-136c-6.628906 0-12-5.371093-12-12v-8c0-6.625 5.371094-12 12-12h136c6.625 0 12 5.375 12 12v8c0 6.628907-5.375 12-12 12zm0 0" fill="#4671c6"/><path d="m462.011719 261.976562h-136c-6.625 0-12-5.371093-12-12v-8c0-6.625 5.375-12 12-12h136c6.628906 0 12 5.375 12 12v8c0 6.628907-5.371094 12-12 12zm0 0" fill="#f9a7a7"/><path d="m162.964844 265.976562h-136c-8.824219 0-16-7.175781-16-16v-8c0-8.820312 7.175781-16 16-16h136c8.820312 0 16 7.179688 16 16v8c0 8.824219-7.179688 16-16 16zm-136-32c-4.414063 0-8 3.589844-8 8v8c0 4.414063 3.585937 8 8 8h136c4.410156 0 8-3.585937 8-8v-8c0-4.410156-3.589844-8-8-8zm0 0" fill="#3762cc"/><path d="m462.011719 265.976562h-136c-8.820313 0-16-7.175781-16-16v-8c0-8.820312 7.179687-16 16-16h136c8.820312 0 16 7.179688 16 16v8c0 8.824219-7.175781 16-16 16zm-136-32c-4.414063 0-8 3.589844-8 8v8c0 4.414063 3.585937 8 8 8h136c4.410156 0 8-3.585937 8-8v-8c0-4.410156-3.589844-8-8-8zm0 0" fill="#3762cc"/><path d="m156.503906 70.019531h-9.910156c2.070312 5.859375 3.203125 12.167969 3.203125 18.746094v5.300781c.117187 0 .234375-.015625.351563-.015625 4.410156 0 8.410156 1.699219 11.433593 4.464844v-29.304687c0-.441407-.03125-.871094-.066406-1.304688-1.308594 1.300781-3.066406 2.113281-5.011719 2.113281zm0 0" fill="#4671c6"/><path d="m161.582031 102.515625c-.976562 0-1.945312-.363281-2.699219-1.046875-2.40625-2.203125-5.507812-3.417969-8.730468-3.417969-.039063.011719-.21875.015625-.355469.019531-1.046875 0-2.054687-.414062-2.804687-1.148437-.765626-.753906-1.195313-1.78125-1.195313-2.851563v-5.300781c0-5.960937-1-11.824219-2.976563-17.417969-.429687-1.222656-.242187-2.582031.507813-3.640624.75-1.058594 1.964844-1.691407 3.265625-1.691407h9.910156c1.027344 0 1.757813-.515625 2.195313-.949219 1.105469-1.09375 2.746093-1.453124 4.203125-.914062 1.460937.542969 2.476562 1.878906 2.601562 3.425781.046875.539063.082032 1.082031.082032 1.628907v29.304687c0 1.585937-.9375 3.023437-2.386719 3.660156-.523438.226563-1.070313.339844-1.617188.339844zm-7.785156-12.144531c1.292969.230468 2.5625.582031 3.785156 1.050781v-17.457031c-.355469.035156-.714843.050781-1.078125.050781h-4.53125c1.210938 4.804687 1.824219 9.75 1.824219 14.75zm0 0" fill="#3762cc"/><path d="m27.964844 62.835938c-.75 1.824218-1.171875 3.824218-1.171875 5.925781v29.445312c2.980469-2.585937 6.851562-4.15625 11.09375-4.15625.117187 0 .234375.015625.351562.015625v-5.300781c0-6.339844 1.074219-12.425781 3.003907-18.109375-5.203126-1.15625-9.792969-3.949219-13.277344-7.820312zm0 0" fill="#4671c6"/><path d="m26.792969 102.207031c-.566407 0-1.132813-.121093-1.664063-.363281-1.421875-.648438-2.335937-2.070312-2.335937-3.636719v-29.445312c0-2.570313.496093-5.078125 1.472656-7.453125.527344-1.269532 1.664063-2.183594 3.019531-2.414063 1.363282-.234375 2.734375.242188 3.652344 1.265625 3.027344 3.363282 6.886719 5.640625 11.171875 6.59375 1.109375.246094 2.058594.953125 2.617187 1.945313.558594.988281.667969 2.171875.300782 3.246093-1.851563 5.457032-2.792969 11.117188-2.792969 16.824219v5.296875c0 1.074219-.429687 2.101563-1.195313 2.851563-.761718.753906-1.761718 1.152343-2.871093 1.148437-.074219 0-.308594-.011718-.378907-.019531-3.003906.003906-6.015624 1.132813-8.378906 3.179687-.742187.644532-1.675781.980469-2.617187.980469zm4-31.699219v20.789063c1.117187-.402344 2.269531-.714844 3.445312-.921875v-1.605469c0-5.214843.679688-10.394531 2.019531-15.449219-1.917968-.738281-3.746093-1.679687-5.464843-2.8125zm0 0" fill="#3762cc"/><path d="m404.152344 35.367188c29.363281 0 49.304687 17.3125 49.304687 45.796874 0 28.664063-18.863281 42.433594-45.035156 44.273438-3.550781.25-6.386719 3.050781-6.566406 6.605469l-.21875 4.277343c-.1875 3.71875-3.257813 6.636719-6.980469 6.636719h-8.273438c-3.773437 0-6.867187-2.996093-6.988281-6.765625l-.648437-20.425781c-.125-3.945313 3.039062-7.210937 6.984375-7.210937h.015625c24.761718 0 43.824218-4.382813 43.824218-27.390626 0-15.339843-9.421874-24.761718-25.195312-24.761718-13.535156 0-22.757812 6.632812-24.929688 18.453125-.605468 3.28125-3.5 5.652343-6.835937 5.652343h-9.613281c-4.269532 0-7.570313-3.8125-6.933594-8.039062 3.320312-22.164062 21.398438-37.101562 48.089844-37.101562zm-14.027344 156.019531c-12.175781 0-20.722656-12.875-13.121094-26.085938.472656-.820312 1.140625-1.550781 1.914063-2.09375 13.117187-9.191406 26.984375-.449219 26.984375 12.179688 0 8.988281-7.011719 16-15.777344 16zm0 0" fill="#e0ebfc"/><path d="m390.125 195.390625c-7.269531 0-13.738281-3.6875-17.308594-9.859375-3.84375-6.648438-3.582031-14.75.722656-22.226562.761719-1.324219 1.832032-2.492188 3.085938-3.371094 7.226562-5.066406 15.691406-5.941406 22.636719-2.320313 6.5625 3.414063 10.640625 10.222657 10.640625 17.777344 0 11.214844-8.6875 20-19.777344 20zm.027344-32c-2.933594 0-6.011719 1.042969-8.933594 3.09375-.296875.207031-.566406.5-.746094.808594-2.839844 4.9375-3.105468 10.121093-.730468 14.230469 2.125 3.671874 6.003906 5.863281 10.382812 5.863281 6.605469 0 11.777344-5.269531 11.777344-12 0-4.554688-2.425782-8.648438-6.332032-10.679688-1.691406-.878906-3.523437-1.316406-5.417968-1.316406zm4.503906-16.433594h-8.277344c-5.96875 0-10.796875-4.671875-10.984375-10.640625l-.648437-20.421875c-.097656-3 1.003906-5.839843 3.089844-7.996093 2.089843-2.15625 4.890624-3.34375 7.894531-3.34375 28.671875 0 39.839843-6.558594 39.839843-23.390626 0-13.195312-7.726562-20.761718-21.199218-20.761718-11.742188 0-19.199219 5.390625-20.996094 15.175781-.949219 5.171875-5.480469 8.929687-10.769531 8.929687h-9.613281c-3.207032 0-6.253907-1.394531-8.347657-3.832031-2.09375-2.429687-3.019531-5.636719-2.546875-8.796875 3.695313-24.609375 24.125-40.511718 52.050782-40.511718 32.382812 0 53.304687 19.546874 53.304687 49.796874 0 28.492188-17.773437 46.082032-48.75 48.265626-1.554687.105468-2.78125 1.316406-2.859375 2.816406l-.214844 4.28125c-.292968 5.847656-5.117187 10.429687-10.972656 10.429687zm9.714844-94.554687c18.007812 0 29.199218 11.023437 29.199218 28.761718 0 27.660157-24.175781 31.390626-47.828124 31.390626-.828126 0-1.589844.320312-2.160157.90625-.566406.589843-.867187 1.363281-.839843 2.179687l.648437 20.421875c.050781 1.625 1.363281 2.894531 2.988281 2.894531h8.277344c1.59375 0 2.90625-1.246093 2.988281-2.839843l.214844-4.277344c.28125-5.539063 4.703125-10.007813 10.285156-10.394532 15.425781-1.085937 41.308594-7.765624 41.308594-40.285156 0-25.78125-17.359375-41.796875-45.300781-41.796875-24.109375 0-41.023438 12.914063-44.140625 33.699219-.175781 1.171875.363281 2 .699219 2.390625.335937.390625 1.082031 1.050781 2.285156 1.050781h9.613281c1.429687 0 2.648437-.996094 2.902344-2.375 2.496093-13.601562 13.285156-21.726562 28.859375-21.726562zm0 0" fill="#3762cc"/></svg>