<svg height="487pt" viewBox="0 -37 487.09513 487" width="487pt" xmlns="http://www.w3.org/2000/svg"><path d="m447.308594 80.074219c.632812 3.359375.992187 6.808593.992187 10.355469v5.25c.117188-.003907.230469-.019532.347657-.019532 4.363281 0 8.328124 1.683594 11.320312 4.421875v-20.007812zm0 0" fill="#4671c6"/><path d="m389.0625 199.769531c-.816406-.121093-1.601562-.273437-2.359375-.453125-5.652344-1.324218-10.644531-4.636718-14.246094-9.214844l-3.617187-4.597656c-.535156-.679687-.890625-1.480468-1.070313-2.320312-11.050781.980468-20.773437 6.597656-27.242187 14.90625h-.003906c-.027344.03125-.046876.0625-.074219.09375-.210938.273437-.414063.554687-.621094.832031-.125.171875-.253906.34375-.375.519531-.195313.273438-.382813.550782-.570313.828125-.125.191407-.25.378907-.371093.566407-.179688.273437-.351563.554687-.523438.832031-.121093.199219-.242187.402343-.359375.605469-.164062.277343-.324218.558593-.484375.839843-.117187.210938-.230469.425781-.34375.644531-.148437.277344-.296875.558594-.4375.84375-.117187.226563-.222656.460938-.332031.6875-.132812.28125-.265625.554688-.390625.839844-.125.273438-.238281.550782-.351563.832032-.1875.441406-.367187.890624-.535156 1.339843-.117187.308594-.234375.617188-.34375.929688-.085937.246093-.160156.496093-.242187.746093-.097657.300782-.195313.601563-.289063.90625-.074218.25-.144531.503907-.214844.757813-.082031.304687-.167968.613281-.246093.925781-.0625.253906-.121094.507813-.179688.765625-.074219.316407-.144531.636719-.207031.953125-.050781.253906-.101562.511719-.144531.765625-.0625.328125-.117188.660157-.167969.996094-.039062.246094-.078125.492187-.113281.742187-.046875.355469-.089844.707032-.125 1.0625-.027344.238282-.054688.472657-.074219.707032-.035156.394531-.0625.792968-.085938 1.191406-.011718.199219-.03125.398438-.039062.601562-.027344.597657-.042969 1.203126-.042969 1.8125v7.847657h123.546875v-7.847657c0-.617187-.015625-1.234374-.046875-1.84375-.007812-.207031-.023437-.414062-.039062-.621093-.023438-.398438-.050781-.796875-.085938-1.195313-.023437-.25-.054687-.496094-.078125-.742187-.042968-.351563-.082031-.699219-.132812-1.046875-.035156-.269532-.074219-.53125-.117188-.796875-.050781-.320313-.109375-.640625-.164062-.960938-.054688-.277343-.105469-.554687-.160156-.832031-.0625-.292969-.128907-.582031-.199219-.871094-.066407-.292968-.132813-.589844-.207031-.882812-.058594-.238282-.128907-.472656-.191407-.707032-.355469-1.277343-.769531-2.53125-1.242187-3.753906-.042969-.101562-.078125-.210937-.121094-.3125-.160156-.402344-.332031-.800781-.503906-1.199218-.050782-.113282-.097656-.226563-.148438-.335938-.179687-.40625-.367187-.804688-.5625-1.203125-.046875-.089844-.089844-.179687-.132812-.265625-.210938-.421875-.425782-.839844-.652344-1.25-.019531-.035156-.039062-.070312-.058594-.109375-6.398437-11.648437-18.503906-19.679687-32.53125-20.253906l-5.28125 6.8125c-5.710937 7.351562-14.890625 11.261719-24.066406 9.882812zm0 0" fill="#4671c6"/><path d="m418.40625 183.0625-5.277344 6.8125c-5.707031 7.363281-14.886718 11.273438-24.066406 9.894531-.8125-.121093-1.597656-.273437-2.355469-.453125-5.652343-1.324218-10.644531-4.636718-14.246093-9.214844l-3.617188-4.597656c-.535156-.679687-.890625-1.480468-1.070312-2.320312-1.980469.175781-3.914063.507812-5.796876.96875l2.695313 5.175781 3.351563 4.261719c4.445312 5.652344 10.621093 9.636718 17.394531 11.222656.929687.21875 1.875.398438 2.808593.539062 1.484376.222657 2.996094.335938 4.5.335938 9.570313 0 18.863282-4.617188 24.859376-12.351562l3.40625-4.394532 3.417968-5.140625zm0 0" fill="#e0ebfc"/><path d="m367.773438 183.183594c.082031.390625.207031.765625.363281 1.128906.023437.046875.039062.097656.066406.144531.070313.148438.144531.292969.226563.433594.082031.136719.171874.269531.265624.398437.050782.070313.09375.148438.148438.214844l3.617188 4.597656c3.597656 4.578126 8.59375 7.894532 14.246093 9.214844.757813.179688 1.542969.332032 2.355469.453125 9.179688 1.378907 18.359375-2.53125 24.066406-9.894531l5.269532-6.796875c.070312-.367187.117187-.734375.117187-1.113281v-15.863282c-7.613281 3.984376-16.261719 6.246094-25.4375 6.246094-9.183594 0-17.839844-2.265625-25.453125-6.253906v15.90625c0 .402344.054688.796875.136719 1.1875.003906-.003906.003906-.003906.011719-.003906zm0 0" fill="#f9cfcf"/><path d="m448.648438 95.660156c-.117188 0-.234376.015625-.351563.015625v-5.25c0-30.679687-24.722656-55.554687-55.222656-55.554687-30.496094 0-55.21875 24.875-55.21875 55.554687v5.25c-.121094 0-.234375-.015625-.351563-.015625-9.304687 0-16.847656 7.585938-16.847656 16.945313s7.542969 16.949219 16.847656 16.949219c.613282 0 1.214844-.035157 1.808594-.101563 5.695312 24.578125 27.597656 42.894531 53.761719 42.894531 26.167969 0 48.066406-18.316406 53.765625-42.894531.59375.066406 1.195312.101563 1.808594.101563 9.304687 0 16.847656-7.589844 16.847656-16.949219s-7.542969-16.945313-16.847656-16.945313zm0 0" fill="#f9cfcf"/><g fill="#3762cc"><path d="m364.09375 114.789062c-3.101562 0-5.617188-2.511718-5.617188-5.613281v-9.484375c0-3.101562 2.515626-5.617187 5.617188-5.617187s5.617188 2.515625 5.617188 5.617187v9.484375c0 3.101563-2.515626 5.613281-5.617188 5.613281zm0 0"/><path d="m422.398438 114.789062c-3.101563 0-5.617188-2.511718-5.617188-5.613281v-9.484375c0-3.101562 2.515625-5.617187 5.617188-5.617187 3.101562 0 5.613281 2.515625 5.613281 5.617187v9.484375c0 3.101563-2.515625 5.613281-5.613281 5.613281zm0 0"/><path d="m393.246094 145.648438c-9.082032 0-16.464844-6.085938-16.464844-13.570313 0-2.210937 1.789062-4 4-4 2.207031 0 4 1.789063 4 4 0 3.015625 3.875 5.570313 8.464844 5.570313s8.464844-2.550782 8.464844-5.570313c0-2.210937 1.792968-4 4-4 2.207031 0 4 1.789063 4 4 0 7.480469-7.386719 13.570313-16.464844 13.570313zm0 0"/><path d="m393.078125 176.347656c-26.582031 0-49.507813-17.453125-56.839844-42.828125-10.90625-.664062-19.578125-9.789062-19.578125-20.914062 0-10.296875 7.433594-18.886719 17.199219-20.625v-1.554688c0-32.835937 26.5625-59.554687 59.21875-59.554687s59.222656 26.71875 59.222656 59.554687v1.554688c9.761719 1.738281 17.195313 10.328125 17.195313 20.625 0 11.125-8.671875 20.25-19.582032 20.914062-7.328124 25.375-30.253906 42.828125-56.835937 42.828125zm-53.761719-50.890625c1.839844 0 3.46875 1.269531 3.894532 3.097657 5.433593 23.429687 25.9375 39.792968 49.867187 39.792968s44.433594-16.363281 49.867187-39.792968c.457032-1.972657 2.292969-3.289063 4.320313-3.074219.457031.046875.917969.078125 1.382813.078125 7.085937 0 12.847656-5.808594 12.847656-12.953125 0-7.117188-5.722656-12.914063-12.78125-12.949219-.152344.007812-.34375.015625-.414063.019531-1.050781 0-2.058593-.414062-2.804687-1.148437-.765625-.753906-1.195313-1.78125-1.195313-2.851563v-5.25c0-28.425781-22.980469-51.554687-51.222656-51.554687-28.246094 0-51.21875 23.125-51.21875 51.554687v5.25c0 1.070313-.433594 2.097657-1.199219 2.851563-.761718.75-1.828125 1.1875-2.871094 1.148437-.074218 0-.308593-.011719-.382812-.019531-6.984375 0-12.746094 5.808594-12.746094 12.949219s5.761719 12.953125 12.847656 12.953125c.464844 0 .929688-.03125 1.378907-.078125.144531-.019531.285156-.023438.429687-.023438zm0 0"/><path d="m455.789062 234.101562h-123.550781c-2.207031 0-4-1.789062-4-4v-7.847656c0-.667968.019531-1.332031.046875-1.992187l.042969-.652344c.027344-.445313.054687-.890625.097656-1.335937l.058594-.578126c.0625-.582031.109375-.972656.160156-1.363281.035157-.257812.078125-.539062.125-.820312.050781-.34375.117188-.707031.179688-1.074219.054687-.308594.113281-.59375.171875-.878906.066406-.328125.136718-.675782.21875-1.027344l.199218-.832031c.089844-.359375.179688-.691407.273438-1.027344l.242188-.859375c.078124-.261719.167968-.542969.261718-.828125l3.902344.925781-3.808594-1.21875.226563-.6875c.09375-.265625.195312-.542968.296875-.816406l.074218-.199219c.191407-.503906.386719-.996093.589844-1.484375l.109375-.253906c.089844-.222656.183594-.445312.28125-.667969.101563-.222656.210938-.449219.316407-.671875l.480468-1c.152344-.308594.300782-.597656.457032-.886718l.414062-.773438c.164062-.296875.34375-.605469.527344-.917969l.398437-.667969c.175781-.292968.375-.601562.570313-.90625l.425781-.648437c.183594-.273437.394531-.582031.613281-.886719l.375-.523437s.128906-.171875.128906-.171875c.195313-.265625.386719-.53125.59375-.792969.015626-.027344.109376-.144531.128907-.167969 6.460937-8.292968 15.898437-13.972656 26.207031-15.84375v-13.632812c0-1.398438.730469-2.695313 1.929688-3.421875 1.195312-.722657 2.683593-.769531 3.925781-.121094 7.339843 3.851563 15.28125 5.800781 23.597656 5.800781 8.3125 0 16.246094-1.949218 23.582031-5.789062 1.238282-.652344 2.730469-.605469 3.925782.121094 1.199218.722656 1.929687 2.019531 1.929687 3.421874l.003906 13.316407c13.351563 1.820312 25.347657 9.988281 31.929688 21.976562.3125.578125.554687 1.039063.785156 1.503907.007813.011718.144531.285156.148437.292968.210938.4375.417969.875.617188 1.316406l.128906.289063c.226563.523437.417969.964844.59375 1.417969.007813.019531.078125.207031.085938.222656.5625 1.445312 1.023437 2.835938 1.410156 4.246094l.410156 1.589844c.113282.492187.183594.808593.25 1.128906l.148438.75c.09375.515625.152344.859375.207031 1.207031l.132813.886719c.054687.402344.101562.78125.140624 1.160156l.085938.808594c.042969.449218.074219.894531.101562 1.339844l.042969.667968v.007813c.027344.667969.046875 1.34375.046875 2.019531v7.851562c.003906 2.210938-1.789062 4-3.996094 4zm-119.550781-8h115.550781v-3.847656c0-.558594-.015624-1.105468-.042968-1.65625l-.039063-.542968c-.019531-.386719-.042969-.738282-.078125-1.09375l-.070312-.667969c-.035156-.320313-.074219-.640625-.117188-.957031l-.941406-4.527344c-.3125-1.140625-.691406-2.277344-1.113281-3.367188l3.613281-1.75-3.710938 1.492188c-.152343-.390625-.304687-.746094-.460937-1.097656-.003906-.007813-.125-.296876-.128906-.304688-.164063-.363281-.335938-.726562-.511719-1.085938l3.460938-2.015624-3.582032 1.777343c-.1875-.375-.378906-.746093-.578125-1.113281-5.910156-10.757812-17.003906-17.707031-29.042969-18.273438-.585937.003907-1.105468-.097656-1.628906-.328124-1.730468-.746094-2.707031-2.59375-2.34375-4.445313.023438-.109375.042969-.21875.042969-.332031v-9.65625c-13.617187 5.308594-29.277344 5.308594-42.890625-.003906v9.695312c0 .03125.003906.132812.050781.355469.230469 1.09375-.007812 2.238281-.660156 3.152343-.648437.910157-1.652344 1.507813-2.769531 1.644532l-.722656.089844c-9.371094 1.007812-18.039063 5.855468-23.84375 13.304687-.015626.023437-.035157.046875-.050782.066406l-.492187.65625-3.347657-2.199219 3.222657 2.367188-.289063.398438c-.175781.25-.34375.496093-.507812.742187l-.347656.527344c-.152344.234375-.308594.480469-.460938.730469l-.335938.5625c-.144531.25-.285156.496093-.425781.746093l-.910156 1.765625c-.003906.003906-.089844.1875-.089844.191406l-.671875 1.503907c-.164062.390625-.324218.792969-.476562 1.199219l-.46875 1.328124c0 .007813-.105469.324219-.109375.328126l-.78125 2.859374c-.0625.277344-.128907.5625-.183594.851563l-.136719.695313c-.046875.273437-.097656.570312-.144531.875l-.101563.667968c-.042968.339844-.078124.65625-.113281.972656l-.066406.597657c-.035156.394531-.058594.746093-.078125 1.097656l-.035156.558594c-.027344.527343-.042969 1.070312-.042969 1.617187v3.847656zm0 0"/></g><path d="m397.277344 10.023438h-28.9375c-26.519532 0-48.019532 21.5-48.019532 48.019531v18.167969c0 2.132812 1.730469 3.863281 3.863282 3.863281h25.839844c3.988281 0 7.941406-.707031 11.671874-2.121094 6.964844-2.632813 17.351563-8.210937 23.597657-19.289063 0 0-5.042969 14.8125-8.910157 19.792969-.5.644531.003907 1.558594.816407 1.488281 17.703125-1.503906 31.605469-16.351562 31.605469-34.445312v-23.949219c-.003907-6.367187-5.164063-11.527343-11.527344-11.527343zm0 0" fill="#4671c6"/><path d="m350.023438 84.074219h-25.84375c-4.335938 0-7.863282-3.527344-7.863282-7.863281v-18.164063c0-28.683594 23.335938-52.019531 52.019532-52.019531h28.941406c8.558594 0 15.523437 6.964844 15.523437 15.523437v23.949219c0 19.871094-15.492187 36.753906-35.269531 38.433594-1.941406.167968-3.816406-.835938-4.753906-2.554688-.730469-1.339844-.785156-2.925781-.199219-4.289062-3.316406 2.023437-6.585937 3.515625-9.46875 4.609375-4.171875 1.574219-8.574219 2.375-13.085937 2.375zm18.316406-70.050781c-24.273438 0-44.019532 19.75-44.019532 44.019531v18.167969l25.703126-.136719c3.542968 0 6.992187-.628907 10.253906-1.863281 6.757812-2.554688 15.980468-7.667969 21.53125-17.511719 1.015625-1.796875 3.234375-2.53125 5.121094-1.683594 1.882812.84375 2.816406 2.984375 2.152343 4.9375-.386719 1.132813-2.980469 8.648437-5.953125 14.792969 12.550782-3.855469 21.675782-15.671875 21.675782-29.246094v-23.949219c0-4.148437-3.378907-7.523437-7.523438-7.523437h-28.941406zm0 0" fill="#3762cc"/><path d="m211.417969 172.359375-13.144531-36.882813c-.566407-1.59375-2.074219-2.65625-3.769532-2.65625h-6.277344c-2.796874 0-4.730468 2.792969-3.742187 5.410157l22.457031 59.566406c.585938 1.558594 2.074219 2.59375 3.738282 2.59375h8.984374c1.664063 0 3.15625-1.035156 3.742188-2.597656l22.375-59.566407c.980469-2.617187-.953125-5.40625-3.746094-5.40625h-6.105468c-1.6875 0-3.195313 1.058594-3.765626 2.652344l-13.210937 36.894532c-1.269531 3.539062-6.273437 3.535156-7.535156-.007813zm0 0" fill="#f9a7a7"/><path d="m281.605469 160.214844c-7.894531-2.179688-12.730469-3.765625-12.730469-8.625 0-6.578125 6.011719-7.289063 8.597656-7.289063l.488282.007813c5.945312.167968 8.894531 3.617187 9.179687 6.960937l.128906 1.539063h15.015625l-.15625-1.820313c-.984375-11.71875-10.015625-19-23.570312-19-14.210938 0-23.757813 8.027344-23.757813 19.972657 0 14.359374 11.621094 17.457031 20.964844 19.945312 8.136719 2.171875 13.125 3.773438 13.125 9.15625 0 4.777344-3.78125 7.746094-9.867187 7.746094-5.773438 0-9.335938-2.910156-9.785157-7.984375l-.132812-1.535157h-14.488281v1.683594c0 11.8125 10.035156 20.0625 24.40625 20.0625 15.660156 0 23.855468-10.324218 23.855468-20.527344-.003906-14.414062-11.796875-17.671874-21.273437-20.292968zm0 0" fill="#f9a7a7"/><path d="m89.960938 199.210938c-.820313-.121094-1.617188-.277344-2.382813-.457032-5.707031-1.335937-10.75-4.683594-14.386719-9.308594l-3.652344-4.644531c-.542968-.691406-.902343-1.492187-1.082031-2.34375-11.164062.988281-20.984375 6.664063-27.519531 15.054688h-.007812c-.023438.03125-.046876.0625-.070313.09375-.214844.277343-.417969.558593-.625.839843-.128906.171876-.257813.347657-.378906.523438-.199219.277344-.386719.554688-.574219.839844-.128906.1875-.253906.375-.378906.566406-.179688.28125-.355469.558594-.527344.84375-.125.203125-.246094.40625-.367188.609375-.164062.28125-.328124.5625-.484374.847656-.121094.21875-.234376.433594-.347657.652344-.148437.28125-.300781.566406-.445312.851563-.113281.230468-.222657.464843-.332031.695312-.136719.28125-.269532.5625-.398438.847656-.121094.277344-.238281.558594-.355469.839844-.1875.445312-.367187.898438-.535156 1.355469-.121094.3125-.238281.621093-.347656.933593-.085938.25-.164063.503907-.246094.753907-.097656.304687-.199219.609375-.289063.917969-.078124.253906-.144531.507812-.21875.765624-.085937.308594-.167968.621094-.246093.933594-.0625.257813-.125.515625-.183594.777344-.074219.320312-.144531.640625-.207031.960938-.054688.257812-.105469.515624-.148438.773437-.0625.332031-.117187.667969-.167968 1.003906-.042969.25-.078126.503907-.113282.753907-.046875.355468-.089844.714843-.128906 1.074218-.023438.238282-.054688.472656-.074219.710938-.035156.398437-.0625.800781-.085937 1.203125-.011719.203125-.03125.402343-.039063.605469-.027343.605468-.042969 1.21875-.042969 1.832031v7.929687h124.796876v-7.929687c0-.625-.019532-1.246094-.046876-1.863281-.011718-.210938-.027343-.417969-.039062-.628907-.027344-.402343-.054688-.808593-.089844-1.210937-.027344-.25-.054687-.496094-.082031-.746094-.039063-.355469-.082031-.707031-.128906-1.058594-.039063-.269531-.078125-.539062-.121094-.804687-.050781-.324219-.109375-.648438-.167969-.972657-.050781-.277343-.105468-.558593-.160156-.839843-.0625-.292969-.132812-.585938-.199219-.878907-.070312-.300781-.136719-.597656-.210937-.890624-.0625-.242188-.132813-.476563-.199219-.714844-.355469-1.292969-.773437-2.558594-1.253906-3.792969-.039063-.105469-.078125-.210937-.117188-.3125-.164062-.410156-.335937-.8125-.511719-1.214844-.050781-.113281-.097656-.226562-.148437-.339843-.183594-.40625-.375-.8125-.574219-1.214844-.042968-.089844-.085937-.179688-.128906-.265625-.214844-.425781-.433594-.847657-.660156-1.261719-.019532-.039062-.042969-.074219-.0625-.113281-6.460938-11.765625-18.691406-19.878907-32.859375-20.460938l-5.335938 6.882813c-5.765625 7.441406-15.035156 11.390625-24.308593 9.996094zm0 0" fill="#f9a7a7"/><path d="m119.605469 182.335938-5.335938 6.882812c-5.765625 7.4375-15.035156 11.382812-24.308593 9.992188-.820313-.121094-1.617188-.277344-2.382813-.457032-5.707031-1.335937-10.75-4.683594-14.386719-9.308594l-3.652344-4.644531c-.542968-.691406-.902343-1.492187-1.082031-2.34375-2 .175781-3.953125.507813-5.855469.976563l2.722657 5.230468 3.386719 4.300782c4.488281 5.710937 10.730468 9.734375 17.570312 11.339844.9375.21875 1.890625.402343 2.835938.542968 1.5.222656 3.027343.335938 4.542968.335938 9.667969 0 19.058594-4.664063 25.117188-12.476563l3.4375-4.4375 3.453125-5.195312zm0 0" fill="#e0ebfc"/><path d="m68.457031 182.460938c.082031.390624.207031.773437.367188 1.140624.023437.046876.042969.09375.066406.144532.070313.148437.148437.292968.230469.4375.082031.136718.171875.269531.265625.402344.050781.074218.097656.148437.152343.21875l3.652344 4.640624c3.636719 4.625 8.679688 7.972657 14.386719 9.3125.765625.179688 1.5625.332032 2.382813.457032 9.269531 1.390625 18.542968-2.558594 24.308593-9.992188l5.324219-6.871094c.074219-.367187.121094-.742187.121094-1.121093v-16.027344c-7.691406 4.027344-16.425782 6.308594-25.699219 6.308594s-18.015625-2.285157-25.710937-6.316407v16.066407c0 .40625.058593.808593.144531 1.199219zm0 0" fill="#f9cfcf"/><path d="m150.148438 94.050781c-.117188 0-.234376.015625-.351563.019531v-5.304687c0-30.992187-24.972656-56.113281-55.78125-56.113281-30.804687 0-55.777344 25.121094-55.777344 56.113281v5.304687c-.117187-.003906-.234375-.019531-.351562-.019531-9.398438 0-17.019531 7.664063-17.019531 17.121094 0 9.453125 7.621093 17.117187 17.019531 17.117187.617187 0 1.226562-.035156 1.824219-.101562 5.757812 24.828125 27.875 43.324219 54.304687 43.324219 26.433594 0 48.550781-18.496094 54.308594-43.324219.597656.066406 1.207031.101562 1.824219.101562 9.398437 0 17.019531-7.664062 17.019531-17.117187 0-9.457031-7.617188-17.121094-17.019531-17.121094zm0 0" fill="#f9cfcf"/><path d="m64.742188 113.375c-3.132813 0-5.671876-2.539062-5.671876-5.671875v-9.582031c0-3.128906 2.539063-5.671875 5.671876-5.671875 3.132812 0 5.671874 2.542969 5.671874 5.671875v9.582031c0 3.132813-2.539062 5.671875-5.671874 5.671875zm0 0" fill="#3762cc"/><path d="m123.632812 113.375c-3.132812 0-5.671874-2.539062-5.671874-5.671875v-9.582031c0-3.128906 2.539062-5.671875 5.671874-5.671875 3.132813 0 5.671876 2.542969 5.671876 5.671875v9.582031c0 3.132813-2.539063 5.671875-5.671876 5.671875zm0 0" fill="#3762cc"/><path d="m94.1875 145.277344c-8.601562 0-15.59375-6.398438-15.59375-14.261719 0-1.65625 1.34375-3 3-3s3 1.34375 3 3c0 4.558594 4.300781 8.261719 9.59375 8.261719 5.289062 0 9.59375-3.703125 9.59375-8.261719 0-1.65625 1.34375-3 3-3s3 1.34375 3 3c0 7.867187-6.996094 14.261719-15.59375 14.261719zm0 0" fill="#3762cc"/><path d="m94.015625 175.511719c-26.84375 0-49.988281-17.625-57.378906-43.257813-11.011719-.652344-19.769531-9.859375-19.769531-21.085937 0-10.394531 7.515624-19.058594 17.371093-20.800781v-1.601563c0-33.148437 26.816407-60.117187 59.78125-60.117187 32.964844 0 59.78125 26.96875 59.78125 60.117187v1.601563c9.855469 1.738281 17.371094 10.40625 17.371094 20.800781 0 11.226562-8.757813 20.433593-19.769531 21.085937-7.394532 25.632813-30.539063 43.257813-57.386719 43.257813zm-54.300781-51.324219c1.839844 0 3.46875 1.269531 3.894531 3.097656 5.488281 23.6875 26.21875 40.226563 50.40625 40.226563 24.191406 0 44.921875-16.539063 50.410156-40.226563.460938-1.972656 2.304688-3.285156 4.324219-3.074218.460938.050781.925781.078124 1.398438.078124 7.179687 0 13.019531-5.882812 13.019531-13.117187 0-7.214844-5.804688-13.085937-12.953125-13.121094-.160156.007813-.351563.019531-.417969.019531-1.050781 0-2.058594-.414062-2.804687-1.148437-.765626-.753906-1.195313-1.78125-1.195313-2.851563v-5.304687c0-28.738281-23.230469-52.113281-51.78125-52.113281s-51.78125 23.375-51.78125 52.113281v5.304687c0 1.070313-.429687 2.097657-1.195313 2.851563-.761718.75-1.800781 1.191406-2.875 1.148437-.070312 0-.304687-.011718-.378906-.019531-7.082031 0-12.921875 5.886719-12.921875 13.121094 0 7.238281 5.839844 13.121094 13.019531 13.121094.472657 0 .9375-.03125 1.398438-.082031.148438-.015626.292969-.023438.433594-.023438zm0 0" fill="#3762cc"/><path d="m157.359375 233.851562h-124.792969c-2.207031 0-4-1.792968-4-4v-7.929687c0-.675781.015625-1.34375.046875-2.007813l.039063-.660156c.03125-.460937.058594-.894531.097656-1.324218l.082031-.785157c.042969-.40625.089844-.800781.144531-1.191406.035157-.261719.078126-.542969.121094-.828125.058594-.378906.121094-.753906.191406-1.125.046876-.265625.105469-.554688.164063-.839844.0625-.332031.140625-.683594.21875-1.039062.003906-.007813.050781-.203125.050781-.210938l.15625-.652344c.085938-.34375.179688-.6875.273438-1.027343l.238281-.851563c.097656-.324218.203125-.652344.3125-.976562l.082031-.253906c.0625-.207032.128906-.414063.203125-.621094.097657-.28125.210938-.585938.328125-.882813.234375-.632812.433594-1.128906.640625-1.621093l.082031-.207032c.101563-.242187.203126-.488281.3125-.730468.125-.277344.257813-.554688.390626-.835938l1.28125-2.503906c.175781-.320313.355468-.632813.539062-.941406l.394531-.660157c.195313-.320312.382813-.625.582031-.925781l.417969-.632812c.199219-.304688.414063-.613282.628907-.917969l.328124-.453125c0-.003906.167969-.234375.171876-.234375.203124-.28125.40625-.554688.621093-.828125.023438-.03125.046875-.0625.074219-.09375 6.566406-8.433594 16.113281-14.175782 26.523438-16.058594v-13.804688c0-1.398437.734374-2.695312 1.929687-3.421874 1.199219-.722657 2.6875-.769532 3.929687-.117188 7.421876 3.886719 15.449219 5.859375 23.855469 5.859375 8.402344 0 16.421875-1.96875 23.839844-5.851563 1.238281-.648437 2.726563-.605468 3.925781.121094 1.199219.722656 1.929688 2.023438 1.929688 3.421875l.003906 13.484375c13.484375 1.828125 25.601562 10.074219 32.253906 22.183594.316406.582031.554688 1.042969.789063 1.507812.007812.011719.085937.167969.09375.179688.273437.558594.480469 1.003906.6875 1.457031l.171875.394531c.183594.421876.375.871094.554687 1.324219.011719.023438.078125.207031.089844.230469.566406 1.464844 1.03125 2.871094 1.421875 4.292969.105469.371093.164062.582031.21875.796875.066406.261718.132812.546875.199219.835937.105469.441407.175781.761719.246093 1.085938l.363282 2c.046875.296875.09375.597656.132812.894531.050782.386719.101563.777344.144532 1.171875l.085937.808594c.042969.449219.070313.890625.101563 1.335937l.039062.6875c.03125.679688.050781 1.363282.050781 2.050782v7.929687c-.003906 2.203125-1.792969 3.992187-4.003906 3.992187zm-120.792969-8h116.792969v-3.929687c0-.5625-.015625-1.117187-.042969-1.671875v-.003906l-.035156-.589844c-.023438-.335938-.046875-.703125-.078125-1.066406l-.054687-.492188c-.054688-.503906-.09375-.820312-.136719-1.132812l-.945313-4.570313c-.324218-1.179687-.703125-2.324219-1.128906-3.425781-.007812-.015625-.070312-.1875-.078125-.207031-.175781-.445313-.332031-.808594-.488281-1.164063l-.132813-.308594c-.164062-.363281-.335937-.726562-.511719-1.085937l3.460938-2.03125-3.578125 1.789063c-.191406-.382813-.390625-.761719-.597656-1.136719-5.972657-10.882813-17.199219-17.914063-29.378907-18.480469-.589843-.023438-1.214843-.128906-1.789062-.40625-1.632812-.796875-2.53125-2.59375-2.171875-4.375.023437-.113281.042969-.21875.042969-.332031v-9.820313c-13.777344 5.390625-29.632813 5.386719-43.410156-.003906v9.855469c0 .023437.003906.121093.054687.351562.234375 1.097657 0 2.246094-.652344 3.160157-.652343.914062-1.65625 1.515624-2.773437 1.652343l-.730469.089844c-9.476563 1.019531-18.242187 5.921875-24.113281 13.457031-.03125.039063-.058594.074219-.09375.113282-.203125.269531-.335938.449218-.464844.625l-.109375-.066407c-.074219.058594-.148437.117188-.226563.167969l.171876.125-.25.34375c-.171876.246094-.34375.496094-.511719.746094l-1.140625 1.820312c-.160156.269532-.304688.519532-.445313.773438l-.925781 1.792968c-.003906.011719-.085938.183594-.089844.195313l-.671875 1.5c-.167969.402344-.328125.8125-.484375 1.222656-.136718.371094-.226562.601563-.308594.835938l-.222656.6875c-.09375.292969-.179687.550781-.261718.816406l-.144532.519531c-.125.449219-.199218.726563-.269531 1.003906l-.128906.523438c0 .003906-.042969.195312-.042969.195312-.054688.257813-.121094.542969-.179688.835938l-.132812.703125c-.058594.316406-.109375.613281-.15625.910156l-.09375.65625c-.046875.339844-.085938.664063-.121094.984375l-.066406.636719c-.03125.359375-.054688.722656-.078125 1.089844l-.035156.554687c-.027344.535156-.042969 1.082032-.042969 1.636719v3.929687zm3.574219-27.277343.789063.582031v-.082031zm0 0" fill="#3762cc"/><path d="m139.621094 17.417969h-9.511719c-7.527344 0-14.046875 4.480469-17.300781 11.039062-.507813 1.027344-1.882813 1.050781-2.425782.042969-3.015624-5.5625-8.671874-9.40625-15.238281-9.746094-40.105469-1.148437-64.015625-10.886718-71.621093-14.523437-1.238282-.59375-2.65625.34375-2.65625 1.746093v39.183594c0 14.417969 11.390624 26.101563 25.445312 26.101563h36.910156c10.84375 0 20.308594-6.011719 25.429688-14.957031.632812-1.105469 2.207031-.808594 2.519531.433593 1.941406 7.644531 8.578125 13.277344 16.46875 13.277344h28.527344c4.039062 0 7.316406-3.4375 7.316406-7.679687v-19.867188c0-13.835938-10.683594-25.050781-23.863281-25.050781zm0 0" fill="#4671c6"/><path d="m83.558594 75.261719h-36.910156c-16.234376 0-29.445313-13.503907-29.445313-30.101563v-39.183594c0-2.054687 1.035156-3.9375 2.761719-5.027343 1.703125-1.074219 3.808594-1.195313 5.621094-.328125 8.109374 3.878906 31.152343 13.023437 70.011718 14.136718 6.441406.332032 12.238282 3.328126 16.21875 8.21875 4.398438-5.984374 11.226563-9.558593 18.628906-9.558593h9.511719c15.363281 0 27.863281 13.03125 27.863281 29.054687v19.863282c0 6.441406-5.074218 11.683593-11.316406 11.683593h-28.523437c-7.816407 0-14.84375-4.492187-18.46875-11.386719-6.304688 7.890626-15.851563 12.628907-25.953125 12.628907zm-58.355469-66.027344v35.925781c0 12.183594 9.621094 22.097656 21.445313 22.097656h36.910156c8.976562 0 17.390625-4.957031 21.957031-12.941406 1.09375-1.90625 3.203125-2.9375 5.34375-2.648437 2.199219.304687 3.976563 1.910156 4.53125 4.09375 1.53125 6.035156 6.707031 10.253906 12.589844 10.253906h28.523437c1.828125 0 3.316406-1.652344 3.316406-3.679687v-19.867188c0-11.609375-8.910156-21.054688-19.863281-21.054688h-9.511719c-5.765624 0-11.019531 3.378907-13.714843 8.816407-.902344 1.820312-2.707031 2.972656-4.710938 3.007812-.035156 0-.0625 0-.097656 0-1.964844 0-3.769531-1.082031-4.71875-2.835937-2.457031-4.535156-6.917969-7.398438-11.925781-7.65625-36.238282-1.035156-59.523438-8.949219-70.074219-13.511719zm82.429687 48.488281c0 .003906 0 .003906.003907.007813-.003907 0-.003907-.003907-.003907-.007813zm0 0" fill="#3762cc"/><path d="m180.664062 322.503906c0-20.0625-16.039062-36.371094-35.996093-36.816406v-.023438h-101.300781v.023438c-19.957032.449219-35.996094 16.753906-35.996094 36.816406l-3.351563 69.71875c-.433593 8.980469 6.734375 16.503906 15.730469 16.503906h.003906c5.085938 0 9.863282-2.457031 12.816406-6.597656l30.558594-42.789062h61.777344l30.558594 42.789062c2.953125 4.140625 7.730468 6.597656 12.816406 6.597656h.003906c8.996094 0 16.164063-7.523437 15.730469-16.503906zm0 0" fill="#f9a7a7"/><path d="m81.046875 322.503906c0 20.34375-16.492187 36.835938-36.835937 36.835938-20.347657 0-36.839844-16.492188-36.839844-36.835938 0-20.347656 16.492187-36.839844 36.839844-36.839844 20.34375 0 36.835937 16.492188 36.835937 36.839844zm0 0" fill="#e0ebfc"/><path d="m180.664062 322.503906c0 20.34375-16.492187 36.835938-36.835937 36.835938s-36.839844-16.492188-36.839844-36.835938c0-20.347656 16.496094-36.839844 36.839844-36.839844s36.835937 16.492188 36.835937 36.839844zm0 0" fill="#e0ebfc"/><path d="m101.269531 331.195312h-14.503906c-1.078125 0-1.957031-.875-1.957031-1.957031v-5.292969c0-1.082031.878906-1.957031 1.957031-1.957031h14.503906c1.082031 0 1.957031.875 1.957031 1.957031v5.292969c0 1.082031-.878906 1.957031-1.957031 1.957031zm0 0" fill="#f9a7a7"/><path d="m69.996094 322.503906c0 14.238282-11.546875 25.785156-25.785156 25.785156-14.242188 0-25.789063-11.546874-25.789063-25.785156 0-14.242187 11.546875-25.789062 25.789063-25.789062 14.238281 0 25.785156 11.546875 25.785156 25.789062zm0 0" fill="#a4c9ff"/><path d="m58.945312 315.539062h-8.289062v-8.289062c0-2.035156-1.652344-3.683594-3.683594-3.683594h-5.527344c-2.035156 0-3.683593 1.648438-3.683593 3.683594v8.289062h-8.289063c-2.03125 0-3.683594 1.648438-3.683594 3.683594v5.527344c0 2.03125 1.652344 3.683594 3.683594 3.683594h8.289063v8.289062c0 2.03125 1.648437 3.683594 3.683593 3.683594h5.527344c2.03125 0 3.683594-1.652344 3.683594-3.683594v-8.289062h8.289062c2.03125 0 3.683594-1.652344 3.683594-3.683594v-5.527344c0-2.035156-1.652344-3.683594-3.683594-3.683594zm0 0" fill="#f9cfcf"/><path d="m171.066406 322.445312c0 14.242188-11.542968 25.789063-25.785156 25.789063s-25.785156-11.546875-25.785156-25.789063c0-14.238281 11.542968-25.785156 25.785156-25.785156s25.785156 11.546875 25.785156 25.785156zm0 0" fill="#a4c9ff"/><path d="m152.648438 308.632812c0 4.070313-3.296876 7.367188-7.367188 7.367188s-7.367188-3.296875-7.367188-7.367188c0-4.070312 3.296876-7.367187 7.367188-7.367187s7.367188 3.296875 7.367188 7.367187zm0 0" fill="#4671c6"/><path d="m152.648438 336.261719c0 4.066406-3.296876 7.367187-7.367188 7.367187s-7.367188-3.300781-7.367188-7.367187c0-4.070313 3.296876-7.367188 7.367188-7.367188s7.367188 3.296875 7.367188 7.367188zm0 0" fill="#4671c6"/><path d="m166.464844 322.445312c0 4.070313-3.300782 7.371094-7.371094 7.371094-4.066406 0-7.367188-3.300781-7.367188-7.371094 0-4.066406 3.300782-7.367187 7.367188-7.367187 4.070312 0 7.371094 3.300781 7.371094 7.367187zm0 0" fill="#4671c6"/><path d="m138.835938 322.445312c0 4.070313-3.300782 7.371094-7.367188 7.371094-4.070312 0-7.371094-3.300781-7.371094-7.371094 0-4.066406 3.300782-7.367187 7.371094-7.367187 4.066406 0 7.367188 3.300781 7.367188 7.367187zm0 0" fill="#4671c6"/><path d="m87.570312 261.851562h12.894532v23.757813h-12.894532zm0 0" fill="#e0ebfc"/><path d="m168.285156 412.726562c-6.375 0-12.378906-3.09375-16.078125-8.273437l-29.359375-41.113281h-57.660156l-29.359375 41.113281c-3.703125 5.179687-9.707031 8.273437-16.074219 8.273437-5.457031 0-10.535156-2.171874-14.296875-6.125-3.765625-3.949218-5.695312-9.125-5.4335935-14.574218l3.3515625-69.714844c-.003906-21.675781 17.660156-39.886719 39.464844-40.613281.171875-.019531.347656-.03125.527344-.03125h101.300781c.179687 0 .359375.011719.53125.035156 21.769531.726563 39.414062 18.882813 39.464843 40.703125l3.347657 69.625c.261719 5.453125-1.667969 10.628906-5.433594 14.574219-3.761719 3.949219-8.835937 6.121093-14.292969 6.121093zm-105.15625-57.386718h61.777344c1.292969 0 2.503906.625 3.257812 1.675781l30.554688 42.792969c2.199219 3.082031 5.773438 4.917968 9.558594 4.917968 3.253906 0 6.273437-1.292968 8.511718-3.640624 2.242188-2.351563 3.386719-5.429688 3.230469-8.671876l-3.351562-69.71875c-.003907-.0625-.003907-.125-.003907-.191406 0-17.695312-14.394531-32.417968-32.085937-32.816406-.109375 0-.21875-.007812-.328125-.019531h-100.46875c-.109375.011719-.214844.019531-.324219.019531-17.695312.398438-32.085937 15.121094-32.085937 32.816406l-3.355469 69.914063c-.15625 3.242187.988281 6.320312 3.230469 8.667969 2.238281 2.347656 5.257812 3.644531 8.503906 3.644531 3.792969 0 7.367188-1.839844 9.566406-4.921875l30.554688-42.789063c.753906-1.054687 1.964844-1.679687 3.257812-1.679687zm121.535156-32.835938h.023438zm0 0" fill="#3762cc"/><path d="m44.207031 363.339844c-22.515625 0-40.835937-18.320313-40.835937-40.835938 0-22.519531 18.320312-40.835937 40.835937-40.835937 22.519531 0 40.839844 18.320312 40.839844 40.835937s-18.320313 40.835938-40.839844 40.835938zm0-73.671875c-18.105469 0-32.835937 14.730469-32.835937 32.835937 0 18.105469 14.730468 32.835938 32.835937 32.835938 18.109375 0 32.839844-14.730469 32.839844-32.835938 0-18.105468-14.730469-32.835937-32.839844-32.835937zm0 0" fill="#3762cc"/><path d="m143.828125 363.339844c-22.519531 0-40.839844-18.320313-40.839844-40.835938 0-22.519531 18.320313-40.835937 40.839844-40.835937 22.515625 0 40.835937 18.320312 40.835937 40.835937s-18.320312 40.835938-40.835937 40.835938zm0-73.671875c-18.109375 0-32.839844 14.730469-32.839844 32.835937 0 18.105469 14.730469 32.835938 32.839844 32.835938s32.835937-14.730469 32.835937-32.835938c0-18.105468-14.730468-32.835937-32.835937-32.835937zm0 0" fill="#3762cc"/><path d="m100.464844 289.609375h-12.894532c-2.207031 0-4-1.792969-4-4v-23.757813c0-2.207031 1.792969-4 4-4h12.894532c2.207031 0 4 1.792969 4 4v23.757813c0 2.207031-1.792969 4-4 4zm-8.894532-8h4.894532v-15.757813h-4.894532zm0 0" fill="#3762cc"/><path d="m479.722656 322.753906c0-20.0625-16.039062-36.367187-35.996094-36.816406v-.019531h-101.304687v.019531c-19.953125.453125-35.996094 16.753906-35.996094 36.816406l-3.347656 69.71875c-.433594 8.984375 6.734375 16.503906 15.730469 16.503906h.003906c5.085938 0 9.859375-2.457031 12.816406-6.597656l30.558594-42.789062h61.777344l30.558594 42.789062c2.953124 4.140625 7.726562 6.597656 12.8125 6.597656h.007812c8.992188 0 16.160156-7.519531 15.730469-16.503906zm0 0" fill="#4671c6"/><path d="m380.105469 322.753906c0 20.347656-16.492188 36.839844-36.839844 36.839844-20.34375 0-36.835937-16.492188-36.835937-36.839844 0-20.34375 16.492187-36.835937 36.835937-36.835937 20.347656 0 36.839844 16.492187 36.839844 36.835937zm0 0" fill="#e0ebfc"/><path d="m479.722656 322.753906c0 20.347656-16.492187 36.839844-36.835937 36.839844-20.347657 0-36.839844-16.492188-36.839844-36.839844 0-20.34375 16.492187-36.835937 36.839844-36.835937 20.34375 0 36.835937 16.492187 36.835937 36.835937zm0 0" fill="#e0ebfc"/><path d="m400.328125 331.445312h-14.503906c-1.082031 0-1.957031-.875-1.957031-1.957031v-5.292969c0-1.082031.875-1.957031 1.957031-1.957031h14.503906c1.082031 0 1.957031.875 1.957031 1.957031v5.292969c.003906 1.082031-.875 1.957031-1.957031 1.957031zm0 0" fill="#f9a7a7"/><path d="m369.054688 322.753906c0 14.242188-11.546876 25.785156-25.789063 25.785156-14.238281 0-25.785156-11.542968-25.785156-25.785156 0-14.242187 11.546875-25.785156 25.785156-25.785156 14.242187 0 25.789063 11.542969 25.789063 25.785156zm0 0" fill="#a4c9ff"/><path d="m358.003906 315.789062h-8.289062v-8.289062c0-2.035156-1.648438-3.683594-3.683594-3.683594h-5.527344c-2.03125 0-3.683594 1.648438-3.683594 3.683594v8.289062h-8.285156c-2.035156 0-3.6875 1.648438-3.6875 3.683594v5.527344c0 2.03125 1.652344 3.683594 3.6875 3.683594h8.285156v8.289062c0 2.03125 1.652344 3.683594 3.683594 3.683594h5.527344c2.035156 0 3.683594-1.652344 3.683594-3.683594v-8.289062h8.289062c2.035156 0 3.683594-1.652344 3.683594-3.683594v-5.527344c0-2.035156-1.648438-3.683594-3.683594-3.683594zm0 0" fill="#ffea92"/><path d="m470.128906 322.695312c0 14.242188-11.546875 25.789063-25.789062 25.789063-14.238282 0-25.785156-11.546875-25.785156-25.789063 0-14.238281 11.546874-25.785156 25.785156-25.785156 14.242187 0 25.789062 11.546875 25.789062 25.785156zm0 0" fill="#a4c9ff"/><path d="m451.710938 308.882812c0 4.070313-3.300782 7.367188-7.371094 7.367188-4.066406 0-7.367188-3.296875-7.367188-7.367188 0-4.070312 3.300782-7.367187 7.367188-7.367187 4.070312 0 7.371094 3.296875 7.371094 7.367187zm0 0" fill="#f9a7a7"/><path d="m451.710938 336.511719c0 4.066406-3.300782 7.367187-7.371094 7.367187-4.066406 0-7.367188-3.300781-7.367188-7.367187 0-4.070313 3.300782-7.367188 7.367188-7.367188 4.070312 0 7.371094 3.296875 7.371094 7.367188zm0 0" fill="#f9a7a7"/><path d="m465.523438 322.695312c0 4.070313-3.296876 7.371094-7.367188 7.371094s-7.367188-3.300781-7.367188-7.371094c0-4.066406 3.296876-7.367187 7.367188-7.367187s7.367188 3.300781 7.367188 7.367187zm0 0" fill="#f9a7a7"/><path d="m437.894531 322.695312c0 4.070313-3.296875 7.371094-7.367187 7.371094-4.070313 0-7.367188-3.300781-7.367188-7.371094 0-4.066406 3.296875-7.367187 7.367188-7.367187 4.070312 0 7.367187 3.300781 7.367187 7.367187zm0 0" fill="#f9a7a7"/><path d="m386.632812 262.101562h12.894532v23.757813h-12.894532zm0 0" fill="#e0ebfc"/><path d="m467.34375 412.976562c-6.371094 0-12.375-3.09375-16.078125-8.269531l-29.359375-41.113281h-57.660156l-29.359375 41.113281c-3.695313 5.179688-9.707031 8.273438-16.070313 8.273438-5.460937 0-10.539062-2.175781-14.300781-6.125-3.765625-3.949219-5.695313-9.125-5.433594-14.574219l3.355469-69.71875c-.007812-21.675781 17.667969-39.890625 39.472656-40.613281.167969-.019531.339844-.03125.515625-.03125h101.304688c.175781 0 .347656.011719.519531.03125 21.773438.722656 39.421875 18.882812 39.472656 40.707031l3.347656 69.625c.261719 5.453125-1.667968 10.625-5.429687 14.574219-3.765625 3.949219-8.839844 6.121093-14.296875 6.121093zm-105.15625-57.382812h61.78125c1.289062 0 2.503906.621094 3.253906 1.675781l30.554688 42.789063c2.199218 3.082031 5.773437 4.921875 9.558594 4.921875 3.253906 0 6.273437-1.296875 8.511718-3.644531 2.238282-2.347657 3.386719-5.425782 3.230469-8.667969l-3.351563-69.71875c-.003906-.0625-.003906-.125-.003906-.191407 0-17.695312-14.394531-32.417968-32.085937-32.816406-.105469-.003906-.210938-.007812-.316407-.019531h-100.492187c-.101563.007813-.207031.015625-.3125.019531-17.691406.398438-32.085937 15.121094-32.085937 32.816406l-3.355469 69.914063c-.15625 3.242187.988281 6.320313 3.230469 8.667969 2.238281 2.347656 5.257812 3.640625 8.503906 3.640625 3.792968 0 7.367187-1.835938 9.566406-4.917969l30.554688-42.792969c.753906-1.054687 1.96875-1.675781 3.257812-1.675781zm121.535156-32.839844h.019532zm0 0" fill="#3762cc"/><path d="m343.265625 363.59375c-22.515625 0-40.835937-18.320312-40.835937-40.839844 0-22.515625 18.320312-40.835937 40.835937-40.835937 22.519531 0 40.839844 18.320312 40.839844 40.835937 0 22.519532-18.320313 40.839844-40.839844 40.839844zm0-73.675781c-18.105469 0-32.835937 14.730469-32.835937 32.835937 0 18.105469 14.730468 32.835938 32.835937 32.835938 18.109375 0 32.839844-14.730469 32.839844-32.835938 0-18.105468-14.730469-32.835937-32.839844-32.835937zm0 0" fill="#3762cc"/><path d="m442.886719 363.59375c-22.515625 0-40.835938-18.320312-40.835938-40.839844 0-22.515625 18.320313-40.835937 40.835938-40.835937 22.519531 0 40.835937 18.320312 40.835937 40.835937 0 22.519532-18.316406 40.839844-40.835937 40.839844zm0-73.675781c-18.105469 0-32.835938 14.730469-32.835938 32.835937 0 18.105469 14.730469 32.835938 32.835938 32.835938s32.835937-14.730469 32.835937-32.835938c0-18.105468-14.730468-32.835937-32.835937-32.835937zm0 0" fill="#3762cc"/><path d="m399.523438 289.859375h-12.890626c-2.210937 0-4-1.792969-4-4v-23.757813c0-2.207031 1.789063-4 4-4h12.890626c2.207031 0 4 1.792969 4 4v23.757813c0 2.210937-1.789063 4-4 4zm-8.890626-8h4.890626v-15.757813h-4.890626zm0 0" fill="#3762cc"/><path d="m162.964844 261.976562h-136c-6.628906 0-12-5.371093-12-12v-8c0-6.628906 5.371094-12 12-12h136c6.625 0 12 5.371094 12 12v8c0 6.628907-5.375 12-12 12zm0 0" fill="#4671c6"/><path d="m462.011719 261.976562h-136c-6.625 0-12-5.371093-12-12v-8c0-6.628906 5.375-12 12-12h136c6.628906 0 12 5.371094 12 12v8c0 6.628907-5.371094 12-12 12zm0 0" fill="#f9a7a7"/><path d="m162.964844 265.976562h-136c-8.824219 0-16-7.179687-16-16v-8c0-8.820312 7.175781-16 16-16h136c8.820312 0 16 7.179688 16 16v8c0 8.824219-7.179688 16-16 16zm-136-32c-4.414063 0-8 3.589844-8 8v8c0 4.414063 3.585937 8 8 8h136c4.410156 0 8-3.585937 8-8v-8c0-4.410156-3.589844-8-8-8zm0 0" fill="#3762cc"/><path d="m462.011719 265.976562h-136c-8.820313 0-16-7.179687-16-16v-8c0-8.820312 7.179687-16 16-16h136c8.820312 0 16 7.179688 16 16v8c0 8.824219-7.175781 16-16 16zm-136-32c-4.414063 0-8 3.589844-8 8v8c0 4.414063 3.585937 8 8 8h136c4.410156 0 8-3.585937 8-8v-8c0-4.410156-3.589844-8-8-8zm0 0" fill="#3762cc"/><path d="m433.265625 80.074219h28.722656c2.125 0 3.847657-1.722657 3.847657-3.84375v-21.972657c0-24.429687-19.804688-44.234374-44.234376-44.234374h-1.371093c-6.371094 0-11.539063 5.167968-11.539063 11.542968v33.929688c0 13.574218 11.003906 24.578125 24.574219 24.578125zm0 0" fill="#4671c6"/><path d="m459.964844 104.078125c-.980469 0-1.949219-.359375-2.699219-1.046875-2.375-2.175781-5.4375-3.371094-8.617187-3.371094l-.25.015625c-1.070313.035157-2.121094-.382812-2.894532-1.136719-.769531-.753906-1.207031-1.785156-1.207031-2.863281v-5.25c0-3.125-.308594-6.359375-.921875-9.613281-.21875-1.167969.09375-2.375.855469-3.292969.757812-.914062 1.886719-1.445312 3.078125-1.445312h12.65625c2.207031 0 4 1.792969 4 4v20.003906c0 1.585937-.9375 3.023437-2.386719 3.660156-.519531.230469-1.070313.339844-1.613281.339844zm-7.664063-12.09375c1.25.222656 2.480469.5625 3.664063 1.011719v-8.921875h-4.019532c.234376 2.140625.355469 4.265625.355469 6.351562zm0 0" fill="#3762cc"/><path d="m461.988281 84.074219h-28.722656c-15.757813 0-28.574219-12.820313-28.574219-28.578125v-33.929688c0-8.570312 6.96875-15.542968 15.539063-15.542968h1.375c26.597656 0 48.230469 21.640624 48.230469 48.234374v21.96875c0 4.328126-3.519532 7.847657-7.847657 7.847657zm-41.757812-70.050781c-4.15625 0-7.539063 3.382812-7.539063 7.542968v33.929688c0 11.347656 9.226563 20.578125 20.574219 20.578125h28.566406v-21.8125c0-22.1875-18.046875-40.234375-40.230469-40.234375h-1.371093zm0 0" fill="#3762cc"/><path d="m326.523438 80.074219v19.699219c2.949218-2.558594 6.78125-4.113282 10.980468-4.113282.121094 0 .234375.015625.351563.015625v-5.25c0-3.542969.355469-6.996093.984375-10.351562zm0 0" fill="#4671c6"/><path d="m326.523438 103.773438c-.5625 0-1.128907-.117188-1.660157-.363282-1.425781-.648437-2.339843-2.070312-2.339843-3.636718v-19.699219c0-2.207031 1.792968-4 4-4h12.316406c1.191406 0 2.320312.53125 3.078125 1.445312.761719.917969 1.074219 2.125.855469 3.292969-.609376 3.238281-.917969 6.472656-.917969 9.613281v5.25c0 1.078125-.4375 2.109375-1.207031 2.863281-.773438.753907-1.816407 1.175782-2.894532 1.136719-.0625 0-.285156-.011719-.351562-.015625-2.957032 0-5.925782 1.113282-8.257813 3.132813-.742187.644531-1.675781.980469-2.621093.980469zm4-19.699219v8.800781c1.082031-.386719 2.199218-.6875 3.332031-.890625v-1.554687c0-2.09375.117187-4.21875.351562-6.351563h-3.683593zm0 0" fill="#3762cc"/><path d="m27.867188 63.101562c-.6875 1.753907-1.074219 3.660157-1.074219 5.65625v29.445313c2.980469-2.585937 6.851562-4.15625 11.09375-4.15625.117187 0 .234375.015625.351562.019531v-5.304687c0-6.3125 1.066407-12.367188 2.980469-18.027344-5.214844-1.085937-9.828125-3.820313-13.351562-7.632813zm0 0" fill="#4671c6"/><path d="m26.792969 102.203125c-.5625 0-1.128907-.117187-1.664063-.359375-1.421875-.652344-2.335937-2.074219-2.335937-3.640625v-29.445313c0-2.421874.453125-4.816406 1.347656-7.109374.503906-1.285157 1.628906-2.21875 2.984375-2.476563 1.359375-.253906 2.742188.203125 3.679688 1.214844 3.066406 3.3125 6.949218 5.539062 11.230468 6.433593 1.121094.234376 2.085938.933594 2.65625 1.929688.566406.992188.683594 2.183594.3125 3.265625-1.835937 5.433594-2.765625 11.070313-2.765625 16.75v5.304687c0 1.070313-.429687 2.097657-1.195312 2.851563-.765625.75-1.707031 1.191406-2.875 1.148437-.070313 0-.308594-.011718-.378907-.019531-3.003906 0-6.015624 1.128907-8.378906 3.179688-.738281.640625-1.675781.972656-2.617187.972656zm4-31.46875v20.5625c1.117187-.40625 2.273437-.714844 3.445312-.925781v-1.605469c0-5.171875.667969-10.308594 1.992188-15.320313-1.902344-.707031-3.722657-1.617187-5.4375-2.710937zm0 0" fill="#3762cc"/><path d="m156.167969 70.015625h-9.574219c2.070312 5.863281 3.203125 12.171875 3.203125 18.75v5.300781c.117187 0 .234375-.019531.351563-.019531 4.410156 0 8.410156 1.703125 11.433593 4.464844v-29.304688c0-.550781-.03125-1.097656-.089843-1.632812-1.332032 1.496093-3.214844 2.441406-5.324219 2.441406zm0 0" fill="#4671c6"/><path d="m161.582031 102.515625c-.976562 0-1.945312-.359375-2.699219-1.050781-2.410156-2.203125-5.511718-3.414063-8.734374-3.414063-.03125.011719-.207032.019531-.351563.019531-1.046875 0-2.054687-.414062-2.804687-1.148437-.765626-.753906-1.195313-1.78125-1.195313-2.851563v-5.304687c0-5.960937-1-11.824219-2.976563-17.414063-.429687-1.226562-.242187-2.582031.507813-3.644531.75-1.058593 1.964844-1.6875 3.265625-1.6875h9.574219c1.179687 0 1.972656-.695312 2.339843-1.105469 1.054688-1.183593 2.710938-1.632812 4.214844-1.148437 1.507813.488281 2.585938 1.816406 2.75 3.390625.070313.675781.109375 1.359375.109375 2.050781v29.308594c0 1.582031-.933593 3.019531-2.382812 3.660156-.523438.226563-1.070313.339844-1.617188.339844zm-7.785156-12.144531c1.292969.230468 2.5625.582031 3.785156 1.050781v-17.5c-.464843.0625-.9375.09375-1.414062.09375h-4.191407c1.210938 4.808594 1.820313 9.746094 1.820313 14.75zm0 0" fill="#3762cc"/></svg>