<?xml version="1.0" encoding="iso-8859-1"?>
<!-- Generator: Adobe Illustrator 19.0.0, SVG Export Plug-In . SVG Version: 6.00 Build 0)  -->
<svg version="1.1" id="Capa_1" xmlns="http://www.w3.org/2000/svg" xmlns:xlink="http://www.w3.org/1999/xlink" x="0px" y="0px"
	 viewBox="0 0 512.002 512.002" style="enable-background:new 0 0 512.002 512.002;" xml:space="preserve">
<g>
	<g>
		<path d="M201.228,228.103c-0.223-4.136-3.745-7.308-7.893-7.086c-3.881,0.209-6.913,3.333-7.089,7.135
			c-4.293,0.253-6.458,0.39-10.799,0.685c-5.601,0.409-13.894-2.146-14.932-9.064l-0.854-9.783
			c-0.171-6.977,8.028-10.718,13.72-11.053c4.442-0.291,6.664-0.426,11.107-0.677c0.106-0.007,0.2-0.005,0.285,0.001
			c0.898,3.351,4.079,5.704,7.644,5.539c4.137-0.222,7.311-3.754,7.089-7.89c-0.178-3.329-1.705-6.442-4.301-8.767
			c-3.013-2.697-7.233-4.093-11.563-3.86c-4.497,0.255-6.744,0.392-11.191,0.682c-14.158,0.835-28.417,11.083-27.772,26.787
			c0.005,0.115,0.013,0.23,0.022,0.345l0.89,10.18c0.011,0.114,0.022,0.228,0.038,0.342c0.979,7.301,5.137,13.558,11.71,17.617
			c4.91,3.032,10.797,4.649,16.778,4.649c0.792,0,1.586-0.028,2.378-0.086c4.276-0.29,6.415-0.425,10.692-0.677
			c8.16-0.479,14.477-6.869,14.082-14.245L201.228,228.103z"/>
	</g>
</g>
<g>
	<g>
		<path d="M255.666,181.284c-14.771-0.041-30.095,0.24-46.826,0.83c-4.14,0.146-7.377,3.62-7.23,7.76
			c0.143,4.049,3.471,7.235,7.49,7.235c0.09,0,0.18-0.002,0.27-0.005c5.362-0.189,10.563-0.342,15.658-0.467l0.746,37.313
			c0.081,4.09,3.423,7.35,7.495,7.35c0.051,0,0.102,0,0.153-0.002c4.141-0.082,7.431-3.507,7.348-7.648l-0.746-37.289
			c5.291-0.064,10.486-0.091,15.61-0.077c0.005,0,0.011,0,0.016,0c4.135,0,7.491-3.348,7.5-7.484
			C263.159,184.658,259.808,181.293,255.666,181.284z"/>
	</g>
</g>
<g>
	<g>
		<path d="M318.719,188.609c-3.479-3.804-8.487-6.106-13.743-6.317c-9.183-0.367-13.663-0.506-22.831-0.706
			c-5.23-0.119-10.391,1.875-14.092,5.457c-3.569,3.453-5.565,8.045-5.619,12.931l-0.246,22.385
			c-0.112,10.234,8.284,18.724,18.716,18.927c8.754,0.172,13.018,0.294,21.723,0.623c0.248,0.009,0.492,0.014,0.738,0.014
			c10.094,0,18.574-7.837,19.066-17.788l1.103-22.307C323.774,196.963,322.065,192.268,318.719,188.609z M307.448,223.394
			c-0.1,2.028-1.966,3.632-4.255,3.524c-8.815-0.332-13.131-0.456-21.997-0.631c-2.232-0.043-4.031-1.731-4.008-3.764l0.247-22.385
			c0.012-1.086,0.577-1.859,1.05-2.316c0.843-0.815,2.081-1.275,3.334-1.24c9.058,0.198,13.485,0.335,22.558,0.698
			c1.283,0.051,2.476,0.58,3.272,1.45c0.441,0.483,0.956,1.283,0.902,2.356L307.448,223.394z"/>
	</g>
</g>
<g>
	<g>
		<path d="M388.481,207.722c0.519-4.979-0.979-9.893-4.216-13.834c-3.377-4.118-8.425-6.765-13.837-7.265
			c-9.201-0.861-18.552-1.62-27.785-2.257c-3.701-0.269-7.425,0.973-10.184,3.382c-2.684,2.344-4.288,5.567-4.517,9.073
			l-1.145,17.511l-1.379,21.098c-0.27,4.133,2.861,7.703,6.995,7.974c4.138,0.273,7.703-2.861,7.974-6.995l0.606-9.292
			c11.033,6.172,22.028,12.504,32.808,18.895c1.2,0.712,2.518,1.05,3.818,1.05c2.562,0,5.058-1.313,6.458-3.676
			c2.112-3.563,0.937-8.164-2.626-10.276c-4.646-2.755-9.342-5.492-14.054-8.217c0.448,0.029,0.897,0.062,1.341,0.062
			C378.793,224.954,387.457,217.559,388.481,207.722z M368.227,209.93c-8.608-0.785-17.314-1.486-25.972-2.092l0.551-8.425
			c8.728,0.611,17.544,1.333,26.233,2.146c1.457,0.135,2.782,0.808,3.635,1.847c0.477,0.578,1.018,1.528,0.889,2.761
			C373.321,208.487,370.931,210.169,368.227,209.93L368.227,209.93z"/>
	</g>
</g>
<g>
	<g>
		<path d="M119.29,189.386c-3.875-1.457-8.201,0.508-9.656,4.386c-4.187,11.154-8.302,22.453-12.291,33.739
			c-6.852-9.877-13.838-19.753-20.86-29.488c-2.426-3.359-7.111-4.117-10.471-1.695c-3.359,2.424-4.118,7.111-1.695,10.471
			c9.844,13.646,19.613,27.567,29.039,41.38c1.409,2.064,3.737,3.272,6.194,3.272c0.331,0,0.665-0.021,1-0.066
			c2.812-0.378,5.169-2.31,6.093-4.991c5.432-15.776,11.163-31.707,17.034-47.352C125.133,195.164,123.169,190.841,119.29,189.386z"
			/>
	</g>
</g>
<g>
	<g>
		<path d="M145.662,238.717l-4.551-44.834c-0.419-4.121-4.1-7.11-8.219-6.705c-4.121,0.418-7.123,4.098-6.705,8.219l4.551,44.836
			c0.393,3.863,3.651,6.743,7.453,6.743c0.253,0,0.509-0.014,0.767-0.039C143.079,246.518,146.08,242.838,145.662,238.717z"/>
	</g>
</g>
<g>
	<g>
		<path d="M447.735,198.517c-2.386-3.386-7.062-4.198-10.451-1.813c-6.803,4.792-13.632,9.679-20.372,14.579
			c-5.192-6.457-10.477-12.938-15.764-19.336c-2.64-3.191-7.366-3.641-10.56-1.003c-3.192,2.64-3.642,7.367-1.003,10.56
			c6.085,7.361,12.156,14.832,18.094,22.249l-2.536,18.823c-0.552,4.105,2.327,7.881,6.432,8.434
			c0.34,0.046,0.677,0.068,1.011,0.068c3.697,0,6.916-2.734,7.423-6.5l2.538-18.836c7.71-5.634,15.556-11.268,23.375-16.774
			C449.308,206.582,450.119,201.904,447.735,198.517z"/>
	</g>
</g>
<g>
	<g>
		<path d="M510.494,182.085c-1.825-3.204-5.103-5.357-8.779-5.761c-6.81-0.738-18.366-1.97-33.038-3.455
			c13.189-16.194,21.332-26.417,21.431-26.542l18.81-23.66c1.821-2.291,2.144-5.433,0.825-8.045
			c-1.318-2.613-4.06-4.207-6.962-4.117l-30.206,1.07c-0.135,0.004-13.804,0.491-43.459,2.472
			c-28.019,1.867-42.736,4.175-45.492,4.634l-4.96,0.859c-1.724,0.298-3.288,1.189-4.423,2.52l-33.776,39.639
			c-6.581-0.454-13.106-0.878-19.521-1.265c-4.134-0.253-7.689,2.901-7.938,7.035c-0.249,4.135,2.9,7.688,7.035,7.938
			c7.481,0.451,15.113,0.954,22.81,1.495c0.091,0.01,0.182,0.012,0.273,0.019c10.494,0.739,21.105,1.548,31.617,2.397
			c0.08,0.009,0.16,0.013,0.241,0.02c50.656,4.095,98.943,9.094,120.349,11.387l-32.569,71.754
			c-16.415-1.747-53.035-5.545-92.866-9.05c-1.593-1.886-3.858-3.085-6.388-3.299c-1.979-0.166-4.814-0.441-8.369-0.785
			c-19.302-1.866-59.466-5.751-99.138-5.751c-39.89,0-80.188,3.906-99.553,5.783c-3.377,0.327-6.075,0.589-7.968,0.751
			c-2.53,0.215-4.795,1.418-6.386,3.309c-14.447,1.265-29.77,2.689-46.686,4.341c-4.123,0.403-7.139,4.071-6.736,8.193
			c0.379,3.875,3.642,6.772,7.456,6.772c0.243,0,0.49-0.013,0.737-0.036c9.861-0.963,19.168-1.847,28.086-2.669
			c7.142,8.199,14.115,16.115,20.744,23.54c60.409,67.637,105.887,105.804,106.34,106.181c1.397,1.166,3.103,1.743,4.806,1.743
			c1.888,0,3.771-0.71,5.22-2.113c0.151-0.146,15.356-14.883,34.576-33.965c2.94-2.918,2.956-7.667,0.038-10.606
			c-2.917-2.938-7.666-2.957-10.607-0.038c-12.643,12.552-23.54,23.215-29.529,29.054c-13.048-11.452-49.861-44.876-96.297-96.504
			c0.123,0.005,0.243,0.023,0.366,0.023c0.162,0,0.323-0.005,0.485-0.013c1.648-0.085,4.516-0.23,8.32-0.411
			c40.699,45.16,68.482,71.676,81.541,83.56c1.431,1.302,3.239,1.953,5.048,1.953c1.808,0,3.614-0.65,5.045-1.95
			c13.003-11.82,40.715-38.256,81.544-83.563c3.802,0.181,6.67,0.326,8.318,0.411c0.282,0.014,0.56-0.004,0.838-0.016
			c-10.04,11.033-24.231,25.819-42.293,44.062c-2.914,2.943-2.891,7.691,0.054,10.606c1.462,1.447,3.369,2.17,5.276,2.17
			c1.932,0,3.863-0.742,5.33-2.224c20.36-20.563,35.902-36.834,46.195-48.361c6.629-7.424,13.602-15.342,20.744-23.541
			c34.326,3.165,63.939,6.269,76.628,7.626c0.403,0.042,0.805,0.063,1.203,0.063c4.488,0,8.609-2.607,10.501-6.763l35.592-78.411
			C512.498,189.198,512.317,185.286,510.494,182.085z M424.122,168.552c-10.658-0.985-21.855-1.984-33.304-2.954l5.532-6.496
			c6.633-0.854,18.378-2.156,35.364-3.289c1.022-0.068,2.032-0.135,3.03-0.2C431.249,159.888,427.684,164.229,424.122,168.552z
			 M442.144,170.253c5.183-6.321,10.28-12.572,15.059-18.471c1.87-2.309,2.202-5.503,0.846-8.146
			c-1.357-2.644-4.152-4.234-7.112-4.063c-5.988,0.352-12.791,0.78-20.22,1.274c-20.193,1.347-33.255,2.942-39.243,3.774
			c-1.821,0.253-3.486,1.166-4.679,2.565l-14.389,16.896c-4.452-0.355-8.917-0.703-13.38-1.04l23.351-27.412l1.514-1.772
			l2.285-0.396c1.56-0.26,16.041-2.589,43.94-4.448c29.42-1.965,42.85-2.443,42.986-2.448l13.947-0.494l-8.68,10.918
			c-0.112,0.14-10.813,13.577-27.6,34.099C447.961,170.815,445.085,170.536,442.144,170.253z M256.003,354.744
			c-13.175-12.279-35.84-34.433-67.114-68.672c10.086-0.407,21.89-0.828,33.967-1.139l27.435,32.21
			c1.425,1.673,3.513,2.637,5.71,2.637c2.197,0,4.285-0.964,5.71-2.637l27.435-32.21c12.077,0.311,23.882,0.732,33.968,1.139
			C291.762,320.402,269.138,342.51,256.003,354.744z M242.233,284.548c4.697-0.062,9.316-0.097,13.769-0.097
			c4.453,0,9.072,0.035,13.769,0.097l-13.769,16.166L242.233,284.548z M348.385,272.191c-10.433-0.519-36.036-1.711-62.312-2.338
			c-0.111-0.004-0.221-0.008-0.332-0.008c-10.097-0.239-20.284-0.394-29.74-0.394c-9.452,0-19.636,0.155-29.73,0.394
			c-0.118,0-0.237,0.003-0.355,0.008c-26.268,0.627-51.864,1.82-62.299,2.338l-4.948-7.961c19.417-1.882,58.689-5.639,97.333-5.639
			c38.698,0,78.119,3.788,97.328,5.646L348.385,272.191z"/>
	</g>
</g>
<g>
	<g>
		<path d="M287.584,158.747c-11.855-0.462-22.495-0.696-31.625-0.696c-23.167,0-53.219,1.499-84.421,3.65l-30.507-35.812
			l-3.271-3.83c-1.135-1.33-2.699-2.222-4.423-2.52l-5.05-0.875c-2.666-0.443-17.383-2.751-45.402-4.618
			c-29.656-1.98-43.325-2.468-43.455-2.472l-30.211-1.07c-2.908-0.1-5.643,1.503-6.962,4.117c-1.318,2.612-0.996,5.754,0.825,8.045
			l18.813,23.664c0.407,0.512,8.51,10.685,21.427,26.537c-15.248,1.543-26.908,2.792-33.043,3.458
			c-3.665,0.398-6.945,2.549-8.77,5.752c-1.826,3.203-2.006,7.119-0.481,10.476l35.586,78.403c1.888,4.157,6,6.765,10.484,6.765
			c0.411,0,0.825-0.021,1.241-0.066c3.187-0.341,8.884-0.946,16.451-1.729c4.12-0.426,7.114-4.111,6.688-8.231
			c-0.426-4.122-4.111-7.124-8.231-6.689c-5.905,0.61-10.675,1.114-14.008,1.469l-32.567-71.752
			c36.666-3.935,169.713-17.673,239.287-17.673c8.936,0,19.379,0.23,31.041,0.685c4.162,0.168,7.625-3.063,7.786-7.202
			C294.947,162.394,291.722,158.908,287.584,158.747z M87.878,168.552c-3.586-4.354-7.14-8.681-10.62-12.939
			c0.998,0.065,2.008,0.132,3.03,0.2c16.986,1.133,28.733,2.436,35.366,3.29l5.534,6.495
			C109.717,166.57,98.518,167.569,87.878,168.552z M139.605,164.082l-14.398-16.897c-1.192-1.399-2.857-2.312-4.678-2.564
			c-5.988-0.832-19.05-2.428-39.244-3.774c-7.428-0.494-14.231-0.923-20.219-1.274c-2.989-0.172-5.755,1.419-7.112,4.063
			c-1.356,2.644-1.024,5.838,0.846,8.146c4.862,6,9.91,12.188,15.058,18.469c-2.94,0.283-5.82,0.562-8.621,0.835
			c-16.479-20.128-27.137-33.51-27.601-34.093l-8.683-10.922l13.952,0.494c0.132,0.005,13.562,0.483,42.983,2.448
			c27.897,1.859,42.379,4.188,43.93,4.446l2.294,0.397l24.866,29.187C148.515,163.38,144.052,163.728,139.605,164.082z"/>
	</g>
</g>
<g>
</g>
<g>
</g>
<g>
</g>
<g>
</g>
<g>
</g>
<g>
</g>
<g>
</g>
<g>
</g>
<g>
</g>
<g>
</g>
<g>
</g>
<g>
</g>
<g>
</g>
<g>
</g>
<g>
</g>
</svg>
