<svg height="496pt" viewBox="0 0 496 496" width="496pt" xmlns="http://www.w3.org/2000/svg"><path d="m360 304v-64h-32v-8c0-13.230469-10.769531-24-24-24h-16v-16c0-8.824219-7.175781-16-16-16h-16v-27.886719c.527344.6875 1.078125 1.390625 1.535156 1.984375 9.136719 11.824219 17.023438 22.007813 26.503906 16.511719 9.59375-5.585937 4.402344-18.335937-1.101562-31.847656-1.570312-3.859375-3.976562-9.761719-4.890625-13.289063 3.417969-.898437 9.410156-1.703125 13.335937-2.234375 14.722657-1.972656 28.617188-3.839843 28.617188-15.238281s-13.894531-13.273438-28.617188-15.246094c-3.925781-.53125-9.917968-1.339844-13.328124-2.226562.914062-3.527344 3.320312-9.429688 4.890624-13.296875 5.503907-13.503907 10.6875-26.269531 1.09375-31.839844-9.453124-5.527344-17.367187 4.679687-26.496093 16.503906-2.703125 3.496094-6.871094 8.90625-9.542969 11.441407-2.671875-2.527344-6.839844-7.9375-9.535156-11.433594-9.136719-11.824219-17.03125-22.023438-26.503906-16.511719-9.59375 5.585937-4.402344 18.335937 1.101562 31.847656 1.570312 3.859375 3.976562 9.761719 4.890625 13.289063-3.417969.898437-9.410156 1.703125-13.335937 2.234375-14.722657 1.972656-28.617188 3.839843-28.617188 15.238281s13.894531 13.273438 28.617188 15.246094c3.925781.53125 9.917968 1.339844 13.328124 2.226562-.914062 3.527344-3.320312 9.429688-4.890624 13.296875-5.503907 13.503907-10.6875 26.269531-1.09375 31.839844 1.824218 1.0625 3.582031 1.542969 5.3125 1.535156 7.246093 0 13.816406-8.496093 21.175781-18.046875.460937-.601562 1.015625-1.304687 1.542969-1.992187v27.894531h-16c-8.824219 0-16 7.175781-16 16v16h-16c-13.230469 0-24 10.769531-24 24v8h-32v80h-135.992188v176h496v-192zm-129.542969-169.632812c3.535157-9.136719 5.40625-16.101563 2.285157-21.503907-3.277344-5.703125-10.910157-7.359375-21.503907-8.855469 10.59375-1.503906 18.226563-3.152343 21.503907-8.855468 3.121093-5.410156 1.25-12.382813-2.292969-21.511719 5.976562 7.40625 11.277343 12.648437 17.550781 12.648437s11.574219-5.234374 17.542969-12.640624c-3.535157 9.136718-5.40625 16.105468-2.285157 21.503906 3.277344 5.703125 10.910157 7.359375 21.503907 8.855468-10.59375 1.503907-18.226563 3.152344-21.503907 8.855469-3.121093 5.410157-1.25 12.382813 2.292969 21.511719-5.976562-7.40625-11.277343-12.648438-17.550781-12.648438s-11.574219 5.234376-17.542969 12.640626zm-6.457031 57.632812h48v16h-48zm-40 40c0-4.40625 3.585938-8 8-8h112c4.414062 0 8 3.59375 8 8v8h-128zm40 24h48v56l-24-18-24 18zm-16 0v88l40-30 40 30v-88h56v224h-192v-224zm-192 80h120v144h-120zm464 144h-120v-160h120zm0 0"/><path d="m240 365.335938v98.664062h16v-120h-20l-26.398438 35.199219 12.796876 9.601562zm0 0"/><path d="m434.238281 401.046875-42.238281 35.199219v27.753906h64v-16h-48v-4.257812l36.496094-30.40625c7.3125-6.097657 11.503906-15.054688 11.503906-24.574219v-4.761719c0-17.648438-14.351562-32-32-32s-32 14.351562-32 32v8h16v-8c0-8.824219 7.175781-16 16-16s16 7.175781 16 16v4.761719c0 4.757812-2.105469 9.238281-5.761719 12.285156zm0 0"/><path d="m104 384c0-17.648438-14.351562-32-32-32h-32v16h32c8.824219 0 16 7.175781 16 16s-7.175781 16-16 16h-16v16h16c8.824219 0 16 7.175781 16 16s-7.175781 16-16 16h-32v16h32c17.648438 0 32-14.351562 32-32 0-9.542969-4.199219-18.136719-10.855469-24 6.65625-5.863281 10.855469-14.457031 10.855469-24zm0 0"/><path d="m240 0h16v32h-16zm0 0"/><path d="m160.808594 36.125 11.316406-11.3125 22.625 22.632812-11.316406 11.308594zm0 0"/><path d="m298.339844 47.433594 22.625-22.625 11.316406 11.3125-22.628906 22.628906zm0 0"/></svg>