<svg id="Capa_1" enable-background="new 0 0 512 512" height="512" viewBox="0 0 512 512" width="512" xmlns="http://www.w3.org/2000/svg"><g><g fill="#5e54ac"><path d="m183.725 497.25c-6.903 0-12.5-5.597-12.5-12.5v-79.851c0-5.471 3.558-10.306 8.78-11.934 5.224-1.627 10.896.329 14.006 4.83l32.918 47.669-.392-40.594c-.067-6.903 5.475-12.554 12.378-12.62.041-.001.083-.001.124-.001 6.847 0 12.43 5.517 12.496 12.379l.747 77.304c.001.041.001.081.001.121 0 6.508-3.754 11.885-9.562 13.699-5.71 1.784-11.713-.398-15.288-5.564l-31.208-45.19v39.752c0 6.903-5.597 12.5-12.5 12.5z"/><path d="m141.45 497.25c-6.903 0-12.5-5.597-12.5-12.5v-80c0-6.903 5.597-12.5 12.5-12.5s12.5 5.597 12.5 12.5v80c0 6.903-5.596 12.5-12.5 12.5z"/><path d="m29.791 497.25c-6.045 0-11.453-3.813-13.479-9.516-.204-.574-.366-1.162-.484-1.76l-15.588-78.798c-1.339-6.772 3.064-13.349 9.837-14.688 6.77-1.341 13.349 3.063 14.688 9.837l7.323 37.025 11.536-37.271c1.086-4.973 5.141-8.904 10.353-9.688 6.12-.927 11.985 2.77 13.807 8.681l11.789 38.27 7.341-36.884c1.348-6.771 7.929-11.167 14.7-9.819s11.167 7.929 9.819 14.7l-15.649 78.629c-.106.535-.248 1.063-.424 1.581-1.958 5.761-7.361 9.66-13.446 9.703-.033 0-.066 0-.1 0-6.045 0-11.453-3.813-13.479-9.516-.06-.167-.115-.336-.168-.505l-12.335-40.04-12.39 40.032c-.035.11-.07.222-.108.331-1.96 5.76-7.364 9.656-13.447 9.697-.033-.001-.065-.001-.096-.001z"/></g><path d="m282.058 497.25c-6.903 0-12.5-5.597-12.5-12.5v-79.851c0-5.471 3.558-10.306 8.78-11.934 5.223-1.627 10.897.329 14.006 4.83l33.295 48.215.025-41.269c.004-6.9 5.601-12.492 12.5-12.492h.008c6.903.004 12.496 5.604 12.492 12.508l-.047 77.304c0 6.5-3.754 11.877-9.563 13.691-5.715 1.784-11.714-.4-15.288-5.564l-31.208-45.19v39.752c0 6.903-5.597 12.5-12.5 12.5z" fill="#453d81"/><path d="m414.147 472.25h-21.209v-15h18.724c6.903 0 12.5-5.597 12.5-12.5s-5.597-12.5-12.5-12.5h-18.724v-15h21.209c6.903 0 12.5-5.597 12.5-12.5s-5.597-12.5-12.5-12.5h-33.709c-6.903 0-12.5 5.597-12.5 12.5v80c0 6.903 5.597 12.5 12.5 12.5h33.709c6.903 0 12.5-5.597 12.5-12.5s-5.596-12.5-12.5-12.5z" fill="#453d81"/><path d="m491.007 456.18c12.329-5.077 20.993-16.899 20.993-30.639 0-18.356-15.462-33.291-34.468-33.291h-21.11c-6.903 0-12.5 5.597-12.5 12.5v80c0 6.903 5.597 12.5 12.5 12.5s12.5-5.597 12.5-12.5v-15.822l21.194 24.081c2.472 2.808 5.921 4.241 9.389 4.241 2.933 0 5.879-1.026 8.254-3.116 5.182-4.562 5.686-12.46 1.125-17.643zm-4.007-30.639c0 4.417-4.424 8.291-9.468 8.291-2.075 0-5.299.012-8.61.026v-16.608h8.61c5.044 0 9.468 3.874 9.468 8.291z" fill="#453d81"/><g><path d="m396 356.75h-280c-8.284 0-15-6.716-15-15v-70h310v70c0 8.284-6.716 15-15 15z" fill="#ffdd54"/></g><g><path d="m256 271.75v85h140c8.284 0 15-6.716 15-15v-70z" fill="#ff936b"/></g><g><path d="m67.501 124.189 33.499 157.561h310l33.499-157.561-41.111-25.138-73.159 59.859-46.15-80.791h-56.158l-46.15 80.791-73.159-59.859z" fill="#fff47d"/></g><g><path d="m444.499 124.189-41.111-25.138-73.159 59.859-46.15-80.791h-28.079v203.631h155z" fill="#ffdd54"/></g><g><path d="m256 94.75c-22.056 0-40-17.944-40-40s17.944-40 40-40 40 17.944 40 40-17.944 40-40 40z" fill="#ffdd54"/></g><g><path d="m256 14.75v80c22.056 0 40-17.944 40-40s-17.944-40-40-40z" fill="#ff936b"/></g><g><path d="m76 131.75c-22.056 0-40-17.944-40-40s17.944-40 40-40 40 17.944 40 40-17.944 40-40 40z" fill="#ffdd54"/></g><g><path d="m436 131.75c-22.056 0-40-17.944-40-40s17.944-40 40-40 40 17.944 40 40-17.944 40-40 40z" fill="#ff936b"/></g></g></svg>